<svg width="130" height="130" viewBox="0 0 130 130" fill="none" xmlns="http://www.w3.org/2000/svg">
<circle cx="118.857" cy="11.1429" r="11.1429" fill="#42ACC7" fill-opacity="0.25"/>
<circle cx="92.102" cy="11.1429" r="11.1429" transform="rotate(90 92.102 11.1429)" fill="#42ACC7" fill-opacity="0.25"/>
<circle cx="92.1062" cy="37.886" r="11.1429" transform="rotate(90 92.1062 37.886)" fill="#42ACC7" fill-opacity="0.25"/>
<circle cx="92.1062" cy="64.6287" r="11.1429" transform="rotate(90 92.1062 64.6287)" fill="#42ACC7" fill-opacity="0.25"/>
<circle cx="92.1142" cy="91.3714" r="11.1429" transform="rotate(90 92.1142 91.3714)" fill="#42ACC7" fill-opacity="0.25"/>
<circle cx="118.857" cy="37.886" r="11.1429" fill="#42ACC7" fill-opacity="0.25"/>
<circle cx="65.3633" cy="11.6101" r="11.1429" transform="rotate(90 65.3633 11.6101)" fill="#42ACC7" fill-opacity="0.25"/>
<circle cx="65.3674" cy="38.3533" r="11.1429" transform="rotate(90 65.3674 38.3533)" fill="#42ACC7" fill-opacity="0.25"/>
<circle cx="118.857" cy="64.6287" r="11.1429" fill="#42ACC7" fill-opacity="0.25"/>
<circle cx="38.6245" cy="11.1429" r="11.1429" transform="rotate(90 38.6245 11.1429)" fill="#42ACC7" fill-opacity="0.25"/>
<circle cx="38.6286" cy="37.8855" r="11.1429" transform="rotate(90 38.6286 37.8855)" fill="#42ACC7" fill-opacity="0.25"/>
<circle cx="118.857" cy="91.3714" r="11.1429" fill="#42ACC7" fill-opacity="0.25"/>
<circle cx="118.857" cy="118.114" r="11.1429" fill="#42ACC7" fill-opacity="0.25"/>
<circle cx="11.801" cy="11.1429" r="11.1429" transform="rotate(90 11.801 11.1429)" fill="#42ACC7" fill-opacity="0.25"/>
</svg>
