<svg xmlns="http://www.w3.org/2000/svg" xmlns:xlink="http://www.w3.org/1999/xlink" width="500" zoomAndPan="magnify" viewBox="0 0 375 187.499995" height="250" preserveAspectRatio="xMidYMid meet" version="1.0"><defs><clipPath id="7bd6eab8b0"><path d="M 94.761719 182.441406 L 219 182.441406 L 219 187 L 94.761719 187 Z M 94.761719 182.441406 " clip-rule="nonzero"/></clipPath><clipPath id="0540a0413c"><path d="M 97.042969 182.441406 L 216.472656 182.441406 C 217.078125 182.441406 217.65625 182.683594 218.085938 183.109375 C 218.511719 183.539062 218.753906 184.117188 218.753906 184.722656 C 218.753906 185.328125 218.511719 185.90625 218.085938 186.332031 C 217.65625 186.761719 217.078125 187 216.472656 187 L 97.042969 187 C 96.4375 187 95.859375 186.761719 95.429688 186.332031 C 95.003906 185.90625 94.761719 185.328125 94.761719 184.722656 C 94.761719 184.117188 95.003906 183.539062 95.429688 183.109375 C 95.859375 182.683594 96.4375 182.441406 97.042969 182.441406 " clip-rule="nonzero"/></clipPath><clipPath id="431633f45c"><path d="M 72.960938 96.492188 L 240.515625 96.492188 L 240.515625 172.789062 L 72.960938 172.789062 Z M 72.960938 96.492188 " clip-rule="nonzero"/></clipPath><clipPath id="86434e26b9"><path d="M 81.1875 96.492188 L 232.289062 96.492188 C 236.832031 96.492188 240.515625 100.160156 240.515625 104.683594 L 240.515625 164.597656 C 240.515625 169.121094 236.832031 172.789062 232.289062 172.789062 L 81.1875 172.789062 C 76.644531 172.789062 72.960938 169.121094 72.960938 164.597656 L 72.960938 104.683594 C 72.960938 100.160156 76.644531 96.492188 81.1875 96.492188 " clip-rule="nonzero"/></clipPath><clipPath id="ec567d8cc6"><path d="M 244.824219 108.695312 L 347.296875 108.695312 L 347.296875 180.503906 L 244.824219 180.503906 Z M 244.824219 108.695312 " clip-rule="nonzero"/></clipPath><clipPath id="765f708761"><path d="M 253.023438 108.695312 L 339.089844 108.695312 C 343.621094 108.695312 347.292969 112.363281 347.292969 116.890625 L 347.292969 172.308594 C 347.292969 176.832031 343.621094 180.503906 339.089844 180.503906 L 253.023438 180.503906 C 248.496094 180.503906 244.824219 176.832031 244.824219 172.308594 L 244.824219 116.890625 C 244.824219 112.363281 248.496094 108.695312 253.023438 108.695312 " clip-rule="nonzero"/></clipPath><clipPath id="848106462c"><path d="M 26.179688 110.351562 L 65.078125 110.351562 L 65.078125 186.648438 L 26.179688 186.648438 Z M 26.179688 110.351562 " clip-rule="nonzero"/></clipPath><clipPath id="4fa3375e81"><path d="M 34.335938 110.351562 L 56.921875 110.351562 C 61.425781 110.351562 65.078125 114.019531 65.078125 118.542969 L 65.078125 178.460938 C 65.078125 182.984375 61.425781 186.648438 56.921875 186.648438 L 34.335938 186.648438 C 29.832031 186.648438 26.179688 182.984375 26.179688 178.460938 L 26.179688 118.542969 C 26.179688 114.019531 29.832031 110.351562 34.335938 110.351562 " clip-rule="nonzero"/></clipPath><clipPath id="1e52ed17ab"><path d="M 132.476562 171.355469 L 181.074219 171.355469 L 181.074219 184.070312 L 132.476562 184.070312 Z M 132.476562 171.355469 " clip-rule="nonzero"/></clipPath><clipPath id="709a5b58e4"><path d="M 90.683594 107.5 L 103.585938 107.5 L 103.585938 120.402344 L 90.683594 120.402344 Z M 90.683594 107.5 " clip-rule="nonzero"/></clipPath><clipPath id="b4dafaaa83"><path d="M 97.136719 107.5 C 93.574219 107.5 90.683594 110.386719 90.683594 113.949219 C 90.683594 117.511719 93.574219 120.402344 97.136719 120.402344 C 100.699219 120.402344 103.585938 117.511719 103.585938 113.949219 C 103.585938 110.386719 100.699219 107.5 97.136719 107.5 " clip-rule="nonzero"/></clipPath><clipPath id="0fa695c5cf"><path d="M 253.269531 117.242188 L 266.171875 117.242188 L 266.171875 130.144531 L 253.269531 130.144531 Z M 253.269531 117.242188 " clip-rule="nonzero"/></clipPath><clipPath id="130ab6e3be"><path d="M 259.722656 117.242188 C 256.160156 117.242188 253.269531 120.128906 253.269531 123.691406 C 253.269531 127.253906 256.160156 130.144531 259.722656 130.144531 C 263.285156 130.144531 266.171875 127.253906 266.171875 123.691406 C 266.171875 120.128906 263.285156 117.242188 259.722656 117.242188 " clip-rule="nonzero"/></clipPath><clipPath id="d11746e804"><path d="M 31.742188 118.472656 L 44.644531 118.472656 L 44.644531 131.375 L 31.742188 131.375 Z M 31.742188 118.472656 " clip-rule="nonzero"/></clipPath><clipPath id="f479072739"><path d="M 38.191406 118.472656 C 34.628906 118.472656 31.742188 121.359375 31.742188 124.921875 C 31.742188 128.484375 34.628906 131.375 38.191406 131.375 C 41.753906 131.375 44.644531 128.484375 44.644531 124.921875 C 44.644531 121.359375 41.753906 118.472656 38.191406 118.472656 " clip-rule="nonzero"/></clipPath><clipPath id="632e65d3c3"><path d="M 158.054688 140.285156 L 183.769531 140.285156 L 183.769531 165.996094 L 158.054688 165.996094 Z M 158.054688 140.285156 " clip-rule="nonzero"/></clipPath><clipPath id="113aaf397c"><path d="M 161.796875 140.285156 L 180.027344 140.285156 C 181.019531 140.285156 181.972656 140.679688 182.671875 141.378906 C 183.375 142.082031 183.769531 143.035156 183.769531 144.023438 L 183.769531 162.257812 C 183.769531 163.25 183.375 164.199219 182.671875 164.902344 C 181.972656 165.601562 181.019531 165.996094 180.027344 165.996094 L 161.796875 165.996094 C 160.804688 165.996094 159.851562 165.601562 159.152344 164.902344 C 158.449219 164.199219 158.054688 163.25 158.054688 162.257812 L 158.054688 144.023438 C 158.054688 143.035156 158.449219 142.082031 159.152344 141.378906 C 159.851562 140.679688 160.804688 140.285156 161.796875 140.285156 " clip-rule="nonzero"/></clipPath><clipPath id="1ae65c0674"><path d="M 32.941406 134.816406 L 58.65625 134.816406 L 58.65625 160.527344 L 32.941406 160.527344 Z M 32.941406 134.816406 " clip-rule="nonzero"/></clipPath><clipPath id="bc990ab270"><path d="M 36.683594 134.816406 L 54.914062 134.816406 C 55.90625 134.816406 56.859375 135.210938 57.558594 135.910156 C 58.261719 136.613281 58.65625 137.566406 58.65625 138.554688 L 58.65625 156.789062 C 58.65625 157.78125 58.261719 158.730469 57.558594 159.433594 C 56.859375 160.132812 55.90625 160.527344 54.914062 160.527344 L 36.683594 160.527344 C 35.691406 160.527344 34.738281 160.132812 34.039062 159.433594 C 33.335938 158.730469 32.941406 157.78125 32.941406 156.789062 L 32.941406 138.554688 C 32.941406 137.566406 33.335938 136.613281 34.039062 135.910156 C 34.738281 135.210938 35.691406 134.816406 36.683594 134.816406 " clip-rule="nonzero"/></clipPath><clipPath id="639d86a93c"><path d="M 199.46875 143.878906 L 212.324219 143.878906 L 212.324219 156.734375 L 199.46875 156.734375 Z M 199.46875 143.878906 " clip-rule="nonzero"/></clipPath><clipPath id="92b651de04"><path d="M 203.210938 143.878906 L 208.585938 143.878906 C 209.578125 143.878906 210.527344 144.273438 211.230469 144.972656 C 211.929688 145.675781 212.324219 146.625 212.324219 147.617188 L 212.324219 152.992188 C 212.324219 153.984375 211.929688 154.9375 211.230469 155.636719 C 210.527344 156.339844 209.578125 156.734375 208.585938 156.734375 L 203.210938 156.734375 C 202.21875 156.734375 201.265625 156.339844 200.5625 155.636719 C 199.863281 154.9375 199.46875 153.984375 199.46875 152.992188 L 199.46875 147.617188 C 199.46875 146.625 199.863281 145.675781 200.5625 144.972656 C 201.265625 144.273438 202.21875 143.878906 203.210938 143.878906 " clip-rule="nonzero"/></clipPath><clipPath id="fad6393ad1"><path d="M 318.898438 150.460938 L 331.753906 150.460938 L 331.753906 163.316406 L 318.898438 163.316406 Z M 318.898438 150.460938 " clip-rule="nonzero"/></clipPath><clipPath id="930042a0e0"><path d="M 322.640625 150.460938 L 328.015625 150.460938 C 329.007812 150.460938 329.957031 150.855469 330.660156 151.558594 C 331.359375 152.257812 331.753906 153.210938 331.753906 154.203125 L 331.753906 159.578125 C 331.753906 160.570312 331.359375 161.519531 330.660156 162.222656 C 329.957031 162.925781 329.007812 163.316406 328.015625 163.316406 L 322.640625 163.316406 C 321.648438 163.316406 320.695312 162.925781 319.992188 162.222656 C 319.292969 161.519531 318.898438 160.570312 318.898438 159.578125 L 318.898438 154.203125 C 318.898438 153.210938 319.292969 152.257812 319.992188 151.558594 C 320.695312 150.855469 321.648438 150.460938 322.640625 150.460938 " clip-rule="nonzero"/></clipPath><clipPath id="90b7a58449"><path d="M 205.898438 149.546875 L 218.753906 149.546875 L 218.753906 162.402344 L 205.898438 162.402344 Z M 205.898438 149.546875 " clip-rule="nonzero"/></clipPath><clipPath id="cc7ac31b1a"><path d="M 209.636719 149.546875 L 215.011719 149.546875 C 216.003906 149.546875 216.957031 149.941406 217.65625 150.644531 C 218.359375 151.34375 218.753906 152.296875 218.753906 153.289062 L 218.753906 158.664062 C 218.753906 159.65625 218.359375 160.605469 217.65625 161.308594 C 216.957031 162.011719 216.003906 162.402344 215.011719 162.402344 L 209.636719 162.402344 C 208.644531 162.402344 207.695312 162.011719 206.992188 161.308594 C 206.289062 160.605469 205.898438 159.65625 205.898438 158.664062 L 205.898438 153.289062 C 205.898438 152.296875 206.289062 151.34375 206.992188 150.644531 C 207.695312 149.941406 208.644531 149.546875 209.636719 149.546875 " clip-rule="nonzero"/></clipPath><clipPath id="ba758e58b0"><path d="M 325.328125 156.132812 L 338.183594 156.132812 L 338.183594 168.988281 L 325.328125 168.988281 Z M 325.328125 156.132812 " clip-rule="nonzero"/></clipPath><clipPath id="037d5db6a4"><path d="M 329.066406 156.132812 L 334.441406 156.132812 C 335.433594 156.132812 336.386719 156.527344 337.085938 157.226562 C 337.789062 157.929688 338.183594 158.882812 338.183594 159.871094 L 338.183594 165.25 C 338.183594 166.242188 337.789062 167.191406 337.085938 167.894531 C 336.386719 168.59375 335.433594 168.988281 334.441406 168.988281 L 329.066406 168.988281 C 328.074219 168.988281 327.125 168.59375 326.421875 167.894531 C 325.71875 167.191406 325.328125 166.242188 325.328125 165.25 L 325.328125 159.871094 C 325.328125 158.882812 325.71875 157.929688 326.421875 157.226562 C 327.125 156.527344 328.074219 156.132812 329.066406 156.132812 " clip-rule="nonzero"/></clipPath><clipPath id="91acf36694"><path d="M 243.660156 177.574219 L 349.089844 177.574219 L 349.089844 187 L 243.660156 187 Z M 243.660156 177.574219 " clip-rule="nonzero"/></clipPath><clipPath id="2671831828"><path d="M 248.382812 177.574219 L 344.332031 177.574219 C 345.585938 177.574219 346.785156 178.085938 347.671875 179 C 348.558594 179.910156 349.054688 181.148438 349.054688 182.4375 C 349.054688 183.726562 348.558594 184.960938 347.671875 185.875 C 346.785156 186.785156 345.585938 187.296875 344.332031 187.296875 L 248.382812 187.296875 C 247.128906 187.296875 245.925781 186.785156 245.042969 185.875 C 244.15625 184.960938 243.660156 183.726562 243.660156 182.4375 C 243.660156 181.148438 244.15625 179.910156 245.042969 179 C 245.925781 178.085938 247.128906 177.574219 248.382812 177.574219 " clip-rule="nonzero"/></clipPath><clipPath id="1ee63fc1c6"><path d="M 284.257812 180.628906 L 308.363281 180.628906 L 308.363281 184.644531 L 284.257812 184.644531 Z M 284.257812 180.628906 " clip-rule="nonzero"/></clipPath><clipPath id="56f29616c8"><path d="M 287.472656 180.628906 L 304.96875 180.628906 L 308.183594 184.566406 L 284.257812 184.566406 L 287.472656 180.628906 " clip-rule="nonzero"/></clipPath></defs><g clip-path="url(#7bd6eab8b0)"><g clip-path="url(#0540a0413c)"><path fill="#404040" d="M 94.761719 182.441406 L 219.453125 182.441406 L 219.453125 186.164062 L 94.761719 186.164062 Z M 94.761719 182.441406 " fill-opacity="1" fill-rule="nonzero"/></g></g><g clip-path="url(#431633f45c)"><g clip-path="url(#86434e26b9)"><path stroke-linecap="butt" transform="matrix(0.747849, 0, 0, 0.744583, 72.961146, 96.493206)" fill="none" stroke-linejoin="miter" d="M 11.000025 -0.0013679 L 213.048337 -0.0013679 C 219.123053 -0.0013679 224.04864 4.924834 224.04864 10.999959 L 224.04864 91.466511 C 224.04864 97.541636 219.123053 102.467838 213.048337 102.467838 L 11.000025 102.467838 C 4.925308 102.467838 -0.00027875 97.541636 -0.00027875 91.466511 L -0.00027875 10.999959 C -0.00027875 4.924834 4.925308 -0.0013679 11.000025 -0.0013679 " stroke="#404040" stroke-width="8" stroke-opacity="1" stroke-miterlimit="4"/></g></g><g clip-path="url(#ec567d8cc6)"><g clip-path="url(#765f708761)"><path stroke-linecap="butt" transform="matrix(0.745709, 0, 0, 0.745216, 244.822455, 108.69456)" fill="none" stroke-linejoin="miter" d="M 10.997564 0.00100948 L 126.413111 0.00100948 C 132.489543 0.00100948 137.413549 4.923033 137.413549 10.998246 L 137.413549 85.36326 C 137.413549 91.433232 132.489543 96.360497 126.413111 96.360497 L 10.997564 96.360497 C 4.92637 96.360497 0.00236455 91.433232 0.00236455 85.36326 L 0.00236455 10.998246 C 0.00236455 4.923033 4.92637 0.00100948 10.997564 0.00100948 " stroke="#404040" stroke-width="8" stroke-opacity="1" stroke-miterlimit="4"/></g></g><g clip-path="url(#848106462c)"><g clip-path="url(#4fa3375e81)"><path stroke-linecap="butt" transform="matrix(0.741544, 0, 0, 0.744584, 26.180768, 110.353291)" fill="none" stroke-linejoin="miter" d="M 10.99756 -0.00232173 L 41.455566 -0.00232173 C 47.529257 -0.00232173 52.454583 4.92388 52.454583 10.999004 L 52.454583 91.470789 C 52.454583 97.545913 47.529257 102.466868 41.455566 102.466868 L 10.99756 102.466868 C 4.923869 102.466868 -0.00145715 97.545913 -0.00145715 91.470789 L -0.00145715 10.999004 C -0.00145715 4.92388 4.923869 -0.00232173 10.99756 -0.00232173 " stroke="#404040" stroke-width="8" stroke-opacity="1" stroke-miterlimit="4"/></g></g><g clip-path="url(#1e52ed17ab)"><path stroke-linecap="butt" transform="matrix(0.748725, 0, 0, 0.765597, 132.476928, 171.356158)" fill="none" stroke-linejoin="miter" d="M -0.00048848 -0.000900577 L 64.906712 -0.000900577 L 64.906712 16.606848 L -0.00048848 16.606848 L -0.00048848 -0.000900577 " stroke="#404040" stroke-width="4" stroke-opacity="1" stroke-miterlimit="4"/></g><g clip-path="url(#709a5b58e4)"><g clip-path="url(#b4dafaaa83)"><path fill="#a15d2a" d="M 90.683594 107.5 L 103.585938 107.5 L 103.585938 120.402344 L 90.683594 120.402344 Z M 90.683594 107.5 " fill-opacity="1" fill-rule="nonzero"/></g></g><g clip-path="url(#0fa695c5cf)"><g clip-path="url(#130ab6e3be)"><path fill="#a15d2a" d="M 253.269531 117.242188 L 266.171875 117.242188 L 266.171875 130.144531 L 253.269531 130.144531 Z M 253.269531 117.242188 " fill-opacity="1" fill-rule="nonzero"/></g></g><g clip-path="url(#d11746e804)"><g clip-path="url(#f479072739)"><path fill="#a15d2a" d="M 31.742188 118.472656 L 44.644531 118.472656 L 44.644531 131.375 L 31.742188 131.375 Z M 31.742188 118.472656 " fill-opacity="1" fill-rule="nonzero"/></g></g><g clip-path="url(#632e65d3c3)"><g clip-path="url(#113aaf397c)"><path fill="#404040" d="M 158.054688 140.285156 L 183.769531 140.285156 L 183.769531 165.996094 L 158.054688 165.996094 Z M 158.054688 140.285156 " fill-opacity="1" fill-rule="nonzero"/></g></g><g clip-path="url(#1ae65c0674)"><g clip-path="url(#bc990ab270)"><path fill="#404040" d="M 32.941406 134.816406 L 58.65625 134.816406 L 58.65625 160.527344 L 32.941406 160.527344 Z M 32.941406 134.816406 " fill-opacity="1" fill-rule="nonzero"/></g></g><g clip-path="url(#639d86a93c)"><g clip-path="url(#92b651de04)"><path fill="#404040" d="M 199.46875 143.878906 L 212.324219 143.878906 L 212.324219 156.734375 L 199.46875 156.734375 Z M 199.46875 143.878906 " fill-opacity="1" fill-rule="nonzero"/></g></g><g clip-path="url(#fad6393ad1)"><g clip-path="url(#930042a0e0)"><path fill="#404040" d="M 318.898438 150.460938 L 331.753906 150.460938 L 331.753906 163.316406 L 318.898438 163.316406 Z M 318.898438 150.460938 " fill-opacity="1" fill-rule="nonzero"/></g></g><g clip-path="url(#90b7a58449)"><g clip-path="url(#cc7ac31b1a)"><path fill="#a15d2a" d="M 205.898438 149.546875 L 218.753906 149.546875 L 218.753906 162.402344 L 205.898438 162.402344 Z M 205.898438 149.546875 " fill-opacity="1" fill-rule="nonzero"/></g></g><g clip-path="url(#ba758e58b0)"><g clip-path="url(#037d5db6a4)"><path fill="#a15d2a" d="M 325.328125 156.132812 L 338.183594 156.132812 L 338.183594 168.988281 L 325.328125 168.988281 Z M 325.328125 156.132812 " fill-opacity="1" fill-rule="nonzero"/></g></g><g clip-path="url(#91acf36694)"><g clip-path="url(#2671831828)"><path stroke-linecap="butt" transform="matrix(0.75, 0, 0, 0.772134, 243.658444, 177.573997)" fill="none" stroke-linejoin="miter" d="M 6.299158 0.000287333 L 134.231456 0.000287333 C 135.903331 0.000287333 137.502289 0.66302 138.684581 1.846833 C 139.866873 3.025586 140.528331 4.629298 140.528331 6.298777 C 140.528331 7.968257 139.866873 9.566909 138.684581 10.750722 C 137.502289 11.929475 135.903331 12.592208 134.231456 12.592208 L 6.299158 12.592208 C 4.627283 12.592208 3.023116 11.929475 1.846033 10.750722 C 0.663741 9.566909 0.00228247 7.968257 0.00228247 6.298777 C 0.00228247 4.629298 0.663741 3.025586 1.846033 1.846833 C 3.023116 0.66302 4.627283 0.000287333 6.299158 0.000287333 " stroke="#404040" stroke-width="8" stroke-opacity="1" stroke-miterlimit="4"/></g></g><g clip-path="url(#1ee63fc1c6)"><g clip-path="url(#56f29616c8)"><path fill="#a15d2a" d="M 284.257812 180.628906 L 308.160156 180.628906 L 308.160156 184.644531 L 284.257812 184.644531 Z M 284.257812 180.628906 " fill-opacity="1" fill-rule="nonzero"/></g></g><path stroke-linecap="round" transform="matrix(0.749266, 0, 0, 0.748005, 132.511305, 112.454176)" fill="none" stroke-linejoin="miter" d="M 2.002511 1.998706 L 62.890224 1.998706 " stroke="#404040" stroke-width="4" stroke-opacity="1" stroke-miterlimit="4"/><path stroke-linecap="round" transform="matrix(0.749266, 0, 0, 0.748005, 289.643501, 121.930534)" fill="none" stroke-linejoin="miter" d="M 1.998121 1.99898 L 62.891048 1.99898 " stroke="#404040" stroke-width="4" stroke-opacity="1" stroke-miterlimit="4"/><path stroke-linecap="round" transform="matrix(0.749266, 0, 0, 0.748005, 90.684684, 141.746998)" fill="none" stroke-linejoin="miter" d="M 2.000504 1.998902 L 62.89343 1.998902 " stroke="#404040" stroke-width="4" stroke-opacity="1" stroke-miterlimit="4"/><path stroke-linecap="round" transform="matrix(0.749266, 0, 0, 0.748005, 253.270635, 150.375487)" fill="none" stroke-linejoin="miter" d="M 2.000486 1.999461 L 62.893412 1.999461 " stroke="#404040" stroke-width="4" stroke-opacity="1" stroke-miterlimit="4"/><path stroke-linecap="round" transform="matrix(0.759513, 0, 0, 0.748005, 34.338868, 165.996613)" fill="none" stroke-linejoin="miter" d="M 2.001949 1.999417 L 30.504997 1.999417 " stroke="#404040" stroke-width="4" stroke-opacity="1" stroke-miterlimit="4"/><path stroke-linecap="round" transform="matrix(0.735241, 0, 0, 0.748005, 53.562392, 120.700423)" fill="none" stroke-linejoin="miter" d="M 1.997793 1.998501 L 7.161918 1.998501 " stroke="#404040" stroke-width="4" stroke-opacity="1" stroke-miterlimit="4"/><path stroke-linecap="round" transform="matrix(0.737917, 0, 0, 0.748005, 114.954052, 151.644905)" fill="none" stroke-linejoin="miter" d="M 1.999733 1.999611 L 30.447648 1.999611 " stroke="#404040" stroke-width="4" stroke-opacity="1" stroke-miterlimit="4"/><path stroke-linecap="round" transform="matrix(0.737917, 0, 0, 0.748005, 277.539986, 157.281387)" fill="none" stroke-linejoin="miter" d="M 1.999737 1.999928 L 30.447653 1.999928 " stroke="#404040" stroke-width="4" stroke-opacity="1" stroke-miterlimit="4"/><path stroke-linecap="round" transform="matrix(0.753648, 0, 0, 0.748005, 266.172702, 164.500603)" fill="none" stroke-linejoin="miter" d="M 1.999589 1.999306 L 45.641494 1.999306 " stroke="#a15d2a" stroke-width="4" stroke-opacity="1" stroke-miterlimit="4"/><path stroke-linecap="round" transform="matrix(0.746026, 0, 0, 0.748005, 99.471168, 160.273408)" fill="none" stroke-linejoin="miter" d="M 2.002176 2.00015 L 51.153245 2.00015 " stroke="#a15d2a" stroke-width="4" stroke-opacity="1" stroke-miterlimit="4"/><path stroke-linecap="round" transform="matrix(0.756645, 0, 0, 0.748005, 34.334212, 173.439732)" fill="none" stroke-linejoin="miter" d="M 2.000205 2.002349 L 23.714073 2.002349 " stroke="#a15d2a" stroke-width="4" stroke-opacity="1" stroke-miterlimit="4"/><path stroke-linecap="round" transform="matrix(0.750837, 0, 0, 0.748005, 197.141723, 112.454176)" fill="none" stroke-linejoin="miter" d="M 2.001511 1.998706 L 26.890398 1.998706 " stroke="#404040" stroke-width="4" stroke-opacity="1" stroke-miterlimit="4"/></svg>