<svg xmlns="http://www.w3.org/2000/svg" xmlns:xlink="http://www.w3.org/1999/xlink" width="500" zoomAndPan="magnify" viewBox="0 0 375 187.499995" height="250" preserveAspectRatio="xMidYMid meet" version="1.0"><defs><filter x="0%" y="0%" width="100%" height="100%" id="dc582f1ec9"><feColorMatrix values="0 0 0 0 1 0 0 0 0 1 0 0 0 0 1 0 0 0 1 0" color-interpolation-filters="sRGB"/></filter><g/><clipPath id="362560038c"><path d="M 94.761719 182.441406 L 219 182.441406 L 219 187 L 94.761719 187 Z M 94.761719 182.441406 " clip-rule="nonzero"/></clipPath><clipPath id="90cd0308a1"><path d="M 97.042969 182.441406 L 216.472656 182.441406 C 217.078125 182.441406 217.65625 182.683594 218.085938 183.109375 C 218.511719 183.539062 218.753906 184.117188 218.753906 184.722656 C 218.753906 185.328125 218.511719 185.90625 218.085938 186.332031 C 217.65625 186.761719 217.078125 187 216.472656 187 L 97.042969 187 C 96.4375 187 95.859375 186.761719 95.429688 186.332031 C 95.003906 185.90625 94.761719 185.328125 94.761719 184.722656 C 94.761719 184.117188 95.003906 183.539062 95.429688 183.109375 C 95.859375 182.683594 96.4375 182.441406 97.042969 182.441406 " clip-rule="nonzero"/></clipPath><clipPath id="33f900cd0d"><path d="M 72.960938 96.492188 L 240.515625 96.492188 L 240.515625 172.789062 L 72.960938 172.789062 Z M 72.960938 96.492188 " clip-rule="nonzero"/></clipPath><clipPath id="d896aab50a"><path d="M 81.1875 96.492188 L 232.289062 96.492188 C 236.832031 96.492188 240.515625 100.160156 240.515625 104.683594 L 240.515625 164.597656 C 240.515625 169.121094 236.832031 172.789062 232.289062 172.789062 L 81.1875 172.789062 C 76.644531 172.789062 72.960938 169.121094 72.960938 164.597656 L 72.960938 104.683594 C 72.960938 100.160156 76.644531 96.492188 81.1875 96.492188 " clip-rule="nonzero"/></clipPath><clipPath id="55f97035fa"><path d="M 244.824219 108.695312 L 347.296875 108.695312 L 347.296875 180.503906 L 244.824219 180.503906 Z M 244.824219 108.695312 " clip-rule="nonzero"/></clipPath><clipPath id="e53930e2bb"><path d="M 253.023438 108.695312 L 339.089844 108.695312 C 343.621094 108.695312 347.292969 112.363281 347.292969 116.890625 L 347.292969 172.308594 C 347.292969 176.832031 343.621094 180.503906 339.089844 180.503906 L 253.023438 180.503906 C 248.496094 180.503906 244.824219 176.832031 244.824219 172.308594 L 244.824219 116.890625 C 244.824219 112.363281 248.496094 108.695312 253.023438 108.695312 " clip-rule="nonzero"/></clipPath><clipPath id="a0bb848cf2"><path d="M 243.660156 177.730469 L 349.089844 177.730469 L 349.089844 187 L 243.660156 187 Z M 243.660156 177.730469 " clip-rule="nonzero"/></clipPath><clipPath id="78bb315a17"><path d="M 248.382812 177.730469 L 344.332031 177.730469 C 345.585938 177.730469 346.785156 178.242188 347.671875 179.152344 C 348.558594 180.0625 349.054688 181.300781 349.054688 182.589844 C 349.054688 183.878906 348.558594 185.117188 347.671875 186.027344 C 346.785156 186.941406 345.585938 187.453125 344.332031 187.453125 L 248.382812 187.453125 C 247.128906 187.453125 245.925781 186.941406 245.042969 186.027344 C 244.15625 185.117188 243.660156 183.878906 243.660156 182.589844 C 243.660156 181.300781 244.15625 180.0625 245.042969 179.152344 C 245.925781 178.242188 247.128906 177.730469 248.382812 177.730469 " clip-rule="nonzero"/></clipPath><clipPath id="1004a559be"><path d="M 26.179688 110.351562 L 65.078125 110.351562 L 65.078125 186.648438 L 26.179688 186.648438 Z M 26.179688 110.351562 " clip-rule="nonzero"/></clipPath><clipPath id="294f5b207f"><path d="M 34.335938 110.351562 L 56.921875 110.351562 C 61.425781 110.351562 65.078125 114.019531 65.078125 118.542969 L 65.078125 178.460938 C 65.078125 182.984375 61.425781 186.648438 56.921875 186.648438 L 34.335938 186.648438 C 29.832031 186.648438 26.179688 182.984375 26.179688 178.460938 L 26.179688 118.542969 C 26.179688 114.019531 29.832031 110.351562 34.335938 110.351562 " clip-rule="nonzero"/></clipPath><clipPath id="b869937a99"><path d="M 132.476562 171.355469 L 181.074219 171.355469 L 181.074219 184.070312 L 132.476562 184.070312 Z M 132.476562 171.355469 " clip-rule="nonzero"/></clipPath><clipPath id="1dd6ce9cbf"><path d="M 90.683594 107.5 L 103.585938 107.5 L 103.585938 120.402344 L 90.683594 120.402344 Z M 90.683594 107.5 " clip-rule="nonzero"/></clipPath><clipPath id="59f9106e19"><path d="M 97.136719 107.5 C 93.574219 107.5 90.683594 110.386719 90.683594 113.949219 C 90.683594 117.511719 93.574219 120.402344 97.136719 120.402344 C 100.699219 120.402344 103.585938 117.511719 103.585938 113.949219 C 103.585938 110.386719 100.699219 107.5 97.136719 107.5 " clip-rule="nonzero"/></clipPath><clipPath id="fc24508790"><path d="M 253.269531 117.242188 L 266.171875 117.242188 L 266.171875 130.144531 L 253.269531 130.144531 Z M 253.269531 117.242188 " clip-rule="nonzero"/></clipPath><clipPath id="9d7a730abe"><path d="M 259.722656 117.242188 C 256.160156 117.242188 253.269531 120.128906 253.269531 123.691406 C 253.269531 127.253906 256.160156 130.144531 259.722656 130.144531 C 263.285156 130.144531 266.171875 127.253906 266.171875 123.691406 C 266.171875 120.128906 263.285156 117.242188 259.722656 117.242188 " clip-rule="nonzero"/></clipPath><clipPath id="c56e00ba74"><path d="M 31.742188 118.472656 L 44.644531 118.472656 L 44.644531 131.375 L 31.742188 131.375 Z M 31.742188 118.472656 " clip-rule="nonzero"/></clipPath><clipPath id="db2e2b6cd8"><path d="M 38.191406 118.472656 C 34.628906 118.472656 31.742188 121.359375 31.742188 124.921875 C 31.742188 128.484375 34.628906 131.375 38.191406 131.375 C 41.753906 131.375 44.644531 128.484375 44.644531 124.921875 C 44.644531 121.359375 41.753906 118.472656 38.191406 118.472656 " clip-rule="nonzero"/></clipPath><clipPath id="366bdfe699"><path d="M 158.054688 140.285156 L 183.769531 140.285156 L 183.769531 165.996094 L 158.054688 165.996094 Z M 158.054688 140.285156 " clip-rule="nonzero"/></clipPath><clipPath id="359482ca23"><path d="M 161.796875 140.285156 L 180.027344 140.285156 C 181.019531 140.285156 181.972656 140.679688 182.671875 141.378906 C 183.375 142.082031 183.769531 143.035156 183.769531 144.023438 L 183.769531 162.257812 C 183.769531 163.25 183.375 164.199219 182.671875 164.902344 C 181.972656 165.601562 181.019531 165.996094 180.027344 165.996094 L 161.796875 165.996094 C 160.804688 165.996094 159.851562 165.601562 159.152344 164.902344 C 158.449219 164.199219 158.054688 163.25 158.054688 162.257812 L 158.054688 144.023438 C 158.054688 143.035156 158.449219 142.082031 159.152344 141.378906 C 159.851562 140.679688 160.804688 140.285156 161.796875 140.285156 " clip-rule="nonzero"/></clipPath><clipPath id="fb938eab36"><path d="M 32.941406 134.816406 L 58.65625 134.816406 L 58.65625 160.527344 L 32.941406 160.527344 Z M 32.941406 134.816406 " clip-rule="nonzero"/></clipPath><clipPath id="bb97639951"><path d="M 36.683594 134.816406 L 54.914062 134.816406 C 55.90625 134.816406 56.859375 135.210938 57.558594 135.910156 C 58.261719 136.613281 58.65625 137.566406 58.65625 138.554688 L 58.65625 156.789062 C 58.65625 157.78125 58.261719 158.730469 57.558594 159.433594 C 56.859375 160.132812 55.90625 160.527344 54.914062 160.527344 L 36.683594 160.527344 C 35.691406 160.527344 34.738281 160.132812 34.039062 159.433594 C 33.335938 158.730469 32.941406 157.78125 32.941406 156.789062 L 32.941406 138.554688 C 32.941406 137.566406 33.335938 136.613281 34.039062 135.910156 C 34.738281 135.210938 35.691406 134.816406 36.683594 134.816406 " clip-rule="nonzero"/></clipPath><clipPath id="e4f3bef7fd"><path d="M 199.46875 143.878906 L 212.324219 143.878906 L 212.324219 156.734375 L 199.46875 156.734375 Z M 199.46875 143.878906 " clip-rule="nonzero"/></clipPath><clipPath id="837c86a9da"><path d="M 203.210938 143.878906 L 208.585938 143.878906 C 209.578125 143.878906 210.527344 144.273438 211.230469 144.972656 C 211.929688 145.675781 212.324219 146.625 212.324219 147.617188 L 212.324219 152.992188 C 212.324219 153.984375 211.929688 154.9375 211.230469 155.636719 C 210.527344 156.339844 209.578125 156.734375 208.585938 156.734375 L 203.210938 156.734375 C 202.21875 156.734375 201.265625 156.339844 200.5625 155.636719 C 199.863281 154.9375 199.46875 153.984375 199.46875 152.992188 L 199.46875 147.617188 C 199.46875 146.625 199.863281 145.675781 200.5625 144.972656 C 201.265625 144.273438 202.21875 143.878906 203.210938 143.878906 " clip-rule="nonzero"/></clipPath><clipPath id="74573a6355"><path d="M 318.898438 150.460938 L 331.753906 150.460938 L 331.753906 163.316406 L 318.898438 163.316406 Z M 318.898438 150.460938 " clip-rule="nonzero"/></clipPath><clipPath id="0aef04a63b"><path d="M 322.640625 150.460938 L 328.015625 150.460938 C 329.007812 150.460938 329.957031 150.855469 330.660156 151.558594 C 331.359375 152.257812 331.753906 153.210938 331.753906 154.203125 L 331.753906 159.578125 C 331.753906 160.570312 331.359375 161.519531 330.660156 162.222656 C 329.957031 162.925781 329.007812 163.316406 328.015625 163.316406 L 322.640625 163.316406 C 321.648438 163.316406 320.695312 162.925781 319.992188 162.222656 C 319.292969 161.519531 318.898438 160.570312 318.898438 159.578125 L 318.898438 154.203125 C 318.898438 153.210938 319.292969 152.257812 319.992188 151.558594 C 320.695312 150.855469 321.648438 150.460938 322.640625 150.460938 " clip-rule="nonzero"/></clipPath><clipPath id="e394078602"><path d="M 205.898438 149.546875 L 218.753906 149.546875 L 218.753906 162.402344 L 205.898438 162.402344 Z M 205.898438 149.546875 " clip-rule="nonzero"/></clipPath><clipPath id="ee774b45d7"><path d="M 209.636719 149.546875 L 215.011719 149.546875 C 216.003906 149.546875 216.957031 149.941406 217.65625 150.644531 C 218.359375 151.34375 218.753906 152.296875 218.753906 153.289062 L 218.753906 158.664062 C 218.753906 159.65625 218.359375 160.605469 217.65625 161.308594 C 216.957031 162.011719 216.003906 162.402344 215.011719 162.402344 L 209.636719 162.402344 C 208.644531 162.402344 207.695312 162.011719 206.992188 161.308594 C 206.289062 160.605469 205.898438 159.65625 205.898438 158.664062 L 205.898438 153.289062 C 205.898438 152.296875 206.289062 151.34375 206.992188 150.644531 C 207.695312 149.941406 208.644531 149.546875 209.636719 149.546875 " clip-rule="nonzero"/></clipPath><clipPath id="cf9a0baeaf"><path d="M 325.328125 156.132812 L 338.183594 156.132812 L 338.183594 168.988281 L 325.328125 168.988281 Z M 325.328125 156.132812 " clip-rule="nonzero"/></clipPath><clipPath id="559b1d2a1d"><path d="M 329.066406 156.132812 L 334.441406 156.132812 C 335.433594 156.132812 336.386719 156.527344 337.085938 157.226562 C 337.789062 157.929688 338.183594 158.882812 338.183594 159.871094 L 338.183594 165.25 C 338.183594 166.242188 337.789062 167.191406 337.085938 167.894531 C 336.386719 168.59375 335.433594 168.988281 334.441406 168.988281 L 329.066406 168.988281 C 328.074219 168.988281 327.125 168.59375 326.421875 167.894531 C 325.71875 167.191406 325.328125 166.242188 325.328125 165.25 L 325.328125 159.871094 C 325.328125 158.882812 325.71875 157.929688 326.421875 157.226562 C 327.125 156.527344 328.074219 156.132812 329.066406 156.132812 " clip-rule="nonzero"/></clipPath><clipPath id="87da62d854"><path d="M 284.257812 180.785156 L 308.363281 180.785156 L 308.363281 184.800781 L 284.257812 184.800781 Z M 284.257812 180.785156 " clip-rule="nonzero"/></clipPath><clipPath id="9296eeaaad"><path d="M 287.472656 180.785156 L 304.96875 180.785156 L 308.183594 184.722656 L 284.257812 184.722656 L 287.472656 180.785156 " clip-rule="nonzero"/></clipPath><mask id="42dc173596"><g filter="url(#dc582f1ec9)"><rect x="-37.5" width="450" fill="#000000" y="-18.749999" height="224.999994" fill-opacity="0.698"/></g></mask><clipPath id="d959cd27bc"><rect x="0" width="42" y="0" height="13"/></clipPath><mask id="2cca24d610"><g filter="url(#dc582f1ec9)"><rect x="-37.5" width="450" fill="#000000" y="-18.749999" height="224.999994" fill-opacity="0.698"/></g></mask><clipPath id="b49d8197e7"><path d="M 0.484375 2 L 9 2 L 9 9 L 0.484375 9 Z M 0.484375 2 " clip-rule="nonzero"/></clipPath><clipPath id="d34bd00be2"><rect x="0" width="41" y="0" height="12"/></clipPath></defs><g clip-path="url(#362560038c)"><g clip-path="url(#90cd0308a1)"><path fill="#404040" d="M 94.761719 182.441406 L 219.453125 182.441406 L 219.453125 186.164062 L 94.761719 186.164062 Z M 94.761719 182.441406 " fill-opacity="1" fill-rule="nonzero"/></g></g><g clip-path="url(#33f900cd0d)"><g clip-path="url(#d896aab50a)"><path stroke-linecap="butt" transform="matrix(0.747849, 0, 0, 0.744583, 72.961146, 96.493206)" fill="none" stroke-linejoin="miter" d="M 11.000025 -0.0013679 L 213.048337 -0.0013679 C 219.123053 -0.0013679 224.04864 4.924834 224.04864 10.999959 L 224.04864 91.466511 C 224.04864 97.541636 219.123053 102.467838 213.048337 102.467838 L 11.000025 102.467838 C 4.925308 102.467838 -0.00027875 97.541636 -0.00027875 91.466511 L -0.00027875 10.999959 C -0.00027875 4.924834 4.925308 -0.0013679 11.000025 -0.0013679 " stroke="#404040" stroke-width="8" stroke-opacity="1" stroke-miterlimit="4"/></g></g><g clip-path="url(#55f97035fa)"><g clip-path="url(#e53930e2bb)"><path stroke-linecap="butt" transform="matrix(0.745709, 0, 0, 0.745216, 244.822455, 108.694553)" fill="none" stroke-linejoin="miter" d="M 10.997564 0.00101912 L 126.413111 0.00101912 C 132.489543 0.00101912 137.413549 4.923043 137.413549 10.998256 L 137.413549 85.36327 C 137.413549 91.433242 132.489543 96.360507 126.413111 96.360507 L 10.997564 96.360507 C 4.92637 96.360507 0.00236455 91.433242 0.00236455 85.36327 L 0.00236455 10.998256 C 0.00236455 4.923043 4.92637 0.00101912 10.997564 0.00101912 " stroke="#404040" stroke-width="8" stroke-opacity="1" stroke-miterlimit="4"/></g></g><g clip-path="url(#a0bb848cf2)"><g clip-path="url(#78bb315a17)"><path stroke-linecap="butt" transform="matrix(0.75, 0, 0, 0.772134, 243.658444, 177.728536)" fill="none" stroke-linejoin="miter" d="M 6.299158 0.00250316 L 134.231456 0.00250316 C 135.903331 0.00250316 137.502289 0.665236 138.684581 1.843989 C 139.866873 3.022743 140.528331 4.626455 140.528331 6.295934 C 140.528331 7.965413 139.866873 9.569125 138.684581 10.747879 C 137.502289 11.931691 135.903331 12.594424 134.231456 12.594424 L 6.299158 12.594424 C 4.627283 12.594424 3.023116 11.931691 1.846033 10.747879 C 0.663741 9.569125 0.00228247 7.965413 0.00228247 6.295934 C 0.00228247 4.626455 0.663741 3.022743 1.846033 1.843989 C 3.023116 0.665236 4.627283 0.00250316 6.299158 0.00250316 " stroke="#404040" stroke-width="8" stroke-opacity="1" stroke-miterlimit="4"/></g></g><g clip-path="url(#1004a559be)"><g clip-path="url(#294f5b207f)"><path stroke-linecap="butt" transform="matrix(0.741544, 0, 0, 0.744584, 26.180768, 110.353274)" fill="none" stroke-linejoin="miter" d="M 10.99756 -0.00229922 L 41.455566 -0.00229922 C 47.529257 -0.00229922 52.454583 4.923902 52.454583 10.999026 L 52.454583 91.470811 C 52.454583 97.545935 47.529257 102.466891 41.455566 102.466891 L 10.99756 102.466891 C 4.923869 102.466891 -0.00145715 97.545935 -0.00145715 91.470811 L -0.00145715 10.999026 C -0.00145715 4.923902 4.923869 -0.00229922 10.99756 -0.00229922 " stroke="#404040" stroke-width="8" stroke-opacity="1" stroke-miterlimit="4"/></g></g><g clip-path="url(#b869937a99)"><path stroke-linecap="butt" transform="matrix(0.748725, 0, 0, 0.765597, 132.476928, 171.356158)" fill="none" stroke-linejoin="miter" d="M -0.00048848 -0.000900577 L 64.906712 -0.000900577 L 64.906712 16.606848 L -0.00048848 16.606848 L -0.00048848 -0.000900577 " stroke="#404040" stroke-width="4" stroke-opacity="1" stroke-miterlimit="4"/></g><g clip-path="url(#1dd6ce9cbf)"><g clip-path="url(#59f9106e19)"><path fill="#a15d2a" d="M 90.683594 107.5 L 103.585938 107.5 L 103.585938 120.402344 L 90.683594 120.402344 Z M 90.683594 107.5 " fill-opacity="1" fill-rule="nonzero"/></g></g><g clip-path="url(#fc24508790)"><g clip-path="url(#9d7a730abe)"><path fill="#a15d2a" d="M 253.269531 117.242188 L 266.171875 117.242188 L 266.171875 130.144531 L 253.269531 130.144531 Z M 253.269531 117.242188 " fill-opacity="1" fill-rule="nonzero"/></g></g><g clip-path="url(#c56e00ba74)"><g clip-path="url(#db2e2b6cd8)"><path fill="#a15d2a" d="M 31.742188 118.472656 L 44.644531 118.472656 L 44.644531 131.375 L 31.742188 131.375 Z M 31.742188 118.472656 " fill-opacity="1" fill-rule="nonzero"/></g></g><g clip-path="url(#366bdfe699)"><g clip-path="url(#359482ca23)"><path fill="#404040" d="M 158.054688 140.285156 L 183.769531 140.285156 L 183.769531 165.996094 L 158.054688 165.996094 Z M 158.054688 140.285156 " fill-opacity="1" fill-rule="nonzero"/></g></g><g clip-path="url(#fb938eab36)"><g clip-path="url(#bb97639951)"><path fill="#404040" d="M 32.941406 134.816406 L 58.65625 134.816406 L 58.65625 160.527344 L 32.941406 160.527344 Z M 32.941406 134.816406 " fill-opacity="1" fill-rule="nonzero"/></g></g><g clip-path="url(#e4f3bef7fd)"><g clip-path="url(#837c86a9da)"><path fill="#404040" d="M 199.46875 143.878906 L 212.324219 143.878906 L 212.324219 156.734375 L 199.46875 156.734375 Z M 199.46875 143.878906 " fill-opacity="1" fill-rule="nonzero"/></g></g><g clip-path="url(#74573a6355)"><g clip-path="url(#0aef04a63b)"><path fill="#404040" d="M 318.898438 150.460938 L 331.753906 150.460938 L 331.753906 163.316406 L 318.898438 163.316406 Z M 318.898438 150.460938 " fill-opacity="1" fill-rule="nonzero"/></g></g><g clip-path="url(#e394078602)"><g clip-path="url(#ee774b45d7)"><path fill="#a15d2a" d="M 205.898438 149.546875 L 218.753906 149.546875 L 218.753906 162.402344 L 205.898438 162.402344 Z M 205.898438 149.546875 " fill-opacity="1" fill-rule="nonzero"/></g></g><g clip-path="url(#cf9a0baeaf)"><g clip-path="url(#559b1d2a1d)"><path fill="#a15d2a" d="M 325.328125 156.132812 L 338.183594 156.132812 L 338.183594 168.988281 L 325.328125 168.988281 Z M 325.328125 156.132812 " fill-opacity="1" fill-rule="nonzero"/></g></g><g clip-path="url(#87da62d854)"><g clip-path="url(#9296eeaaad)"><path fill="#a15d2a" d="M 284.257812 180.785156 L 308.160156 180.785156 L 308.160156 184.800781 L 284.257812 184.800781 Z M 284.257812 180.785156 " fill-opacity="1" fill-rule="nonzero"/></g></g><path stroke-linecap="round" transform="matrix(0.749266, 0, 0, 0.748005, 132.511305, 112.454162)" fill="none" stroke-linejoin="miter" d="M 2.002511 1.998725 L 62.890224 1.998725 " stroke="#404040" stroke-width="4" stroke-opacity="1" stroke-miterlimit="4"/><path stroke-linecap="round" transform="matrix(0.749266, 0, 0, 0.748005, 289.643501, 121.930519)" fill="none" stroke-linejoin="miter" d="M 1.998121 1.998999 L 62.891048 1.998999 " stroke="#404040" stroke-width="4" stroke-opacity="1" stroke-miterlimit="4"/><path stroke-linecap="round" transform="matrix(0.749266, 0, 0, 0.748005, 90.684684, 141.746998)" fill="none" stroke-linejoin="miter" d="M 2.000504 1.998902 L 62.89343 1.998902 " stroke="#404040" stroke-width="4" stroke-opacity="1" stroke-miterlimit="4"/><path stroke-linecap="round" transform="matrix(0.749266, 0, 0, 0.748005, 253.270635, 150.375487)" fill="none" stroke-linejoin="miter" d="M 2.000486 1.999461 L 62.893412 1.999461 " stroke="#404040" stroke-width="4" stroke-opacity="1" stroke-miterlimit="4"/><path stroke-linecap="round" transform="matrix(0.759513, 0, 0, 0.748005, 34.338868, 165.996613)" fill="none" stroke-linejoin="miter" d="M 2.001949 1.999417 L 30.504997 1.999417 " stroke="#404040" stroke-width="4" stroke-opacity="1" stroke-miterlimit="4"/><path stroke-linecap="round" transform="matrix(0.735241, 0, 0, 0.748005, 53.562389, 120.700416)" fill="none" stroke-linejoin="miter" d="M 1.997796 1.998511 L 7.161921 1.998511 " stroke="#404040" stroke-width="4" stroke-opacity="1" stroke-miterlimit="4"/><path stroke-linecap="round" transform="matrix(0.737917, 0, 0, 0.748005, 114.954052, 151.644905)" fill="none" stroke-linejoin="miter" d="M 1.999733 1.999611 L 30.447648 1.999611 " stroke="#404040" stroke-width="4" stroke-opacity="1" stroke-miterlimit="4"/><path stroke-linecap="round" transform="matrix(0.737917, 0, 0, 0.748005, 277.539986, 157.281373)" fill="none" stroke-linejoin="miter" d="M 1.999737 1.999947 L 30.447653 1.999947 " stroke="#404040" stroke-width="4" stroke-opacity="1" stroke-miterlimit="4"/><path stroke-linecap="round" transform="matrix(0.753648, 0, 0, 0.748005, 266.172702, 164.500603)" fill="none" stroke-linejoin="miter" d="M 1.999589 1.999306 L 45.641494 1.999306 " stroke="#a15d2a" stroke-width="4" stroke-opacity="1" stroke-miterlimit="4"/><path stroke-linecap="round" transform="matrix(0.746026, 0, 0, 0.748005, 99.471154, 160.273394)" fill="none" stroke-linejoin="miter" d="M 2.002196 2.00017 L 51.153265 2.00017 " stroke="#a15d2a" stroke-width="4" stroke-opacity="1" stroke-miterlimit="4"/><path stroke-linecap="round" transform="matrix(0.756645, 0, 0, 0.748005, 34.334212, 173.439732)" fill="none" stroke-linejoin="miter" d="M 2.000205 2.002349 L 23.714073 2.002349 " stroke="#a15d2a" stroke-width="4" stroke-opacity="1" stroke-miterlimit="4"/><path stroke-linecap="round" transform="matrix(0.750837, 0, 0, 0.748005, 197.141723, 112.454162)" fill="none" stroke-linejoin="miter" d="M 2.001511 1.998725 L 26.890398 1.998725 " stroke="#404040" stroke-width="4" stroke-opacity="1" stroke-miterlimit="4"/><g mask="url(#42dc173596)"><g transform="matrix(1, 0, 0, 1, 136, 118)"><g clip-path="url(#d959cd27bc)"><g fill="#404040" fill-opacity="1"><g transform="translate(1.101676, 8.917253)"><g><path d="M 8.375 -5.625 L 7 0 L 5.0625 0 L 4.296875 -3.453125 L 3.5 0 L 1.578125 0 L 0.21875 -5.625 L 1.90625 -5.625 L 2.5625 -1.78125 L 3.453125 -5.625 L 5.171875 -5.625 L 6.03125 -1.8125 L 6.6875 -5.625 Z M 8.375 -5.625 "/></g></g></g><g fill="#404040" fill-opacity="1"><g transform="translate(9.686952, 8.917253)"><g><path d="M 4.734375 -2.296875 C 4.734375 -2.171875 4.722656 -2.046875 4.703125 -1.921875 L 1.734375 -1.921875 C 1.753906 -1.679688 1.820312 -1.5 1.9375 -1.375 C 2.0625 -1.257812 2.21875 -1.203125 2.40625 -1.203125 C 2.664062 -1.203125 2.851562 -1.316406 2.96875 -1.546875 L 4.625 -1.546875 C 4.5625 -1.234375 4.425781 -0.957031 4.21875 -0.71875 C 4.019531 -0.476562 3.769531 -0.285156 3.46875 -0.140625 C 3.164062 -0.00390625 2.832031 0.0625 2.46875 0.0625 C 2.019531 0.0625 1.625 -0.03125 1.28125 -0.21875 C 0.945312 -0.40625 0.679688 -0.671875 0.484375 -1.015625 C 0.285156 -1.367188 0.1875 -1.78125 0.1875 -2.25 C 0.1875 -2.71875 0.28125 -3.117188 0.46875 -3.453125 C 0.664062 -3.796875 0.9375 -4.0625 1.28125 -4.25 C 1.625 -4.4375 2.019531 -4.53125 2.46875 -4.53125 C 2.90625 -4.53125 3.296875 -4.441406 3.640625 -4.265625 C 3.984375 -4.085938 4.25 -3.828125 4.4375 -3.484375 C 4.632812 -3.148438 4.734375 -2.753906 4.734375 -2.296875 Z M 3.125 -2.6875 C 3.125 -2.875 3.0625 -3.019531 2.9375 -3.125 C 2.8125 -3.238281 2.648438 -3.296875 2.453125 -3.296875 C 2.265625 -3.296875 2.109375 -3.242188 1.984375 -3.140625 C 1.859375 -3.035156 1.78125 -2.882812 1.75 -2.6875 Z M 3.125 -2.6875 "/></g></g></g><g fill="#404040" fill-opacity="1"><g transform="translate(14.601946, 8.917253)"><g><path d="M 2.015625 -5.90625 L 2.015625 0 L 0.453125 0 L 0.453125 -5.90625 Z M 2.015625 -5.90625 "/></g></g></g><g fill="#404040" fill-opacity="1"><g transform="translate(17.059443, 8.917253)"><g><path d="M 0.1875 -2.25 C 0.1875 -2.707031 0.28125 -3.109375 0.46875 -3.453125 C 0.664062 -3.796875 0.9375 -4.0625 1.28125 -4.25 C 1.625 -4.4375 2.015625 -4.53125 2.453125 -4.53125 C 3.023438 -4.53125 3.503906 -4.375 3.890625 -4.0625 C 4.285156 -3.75 4.535156 -3.316406 4.640625 -2.765625 L 2.984375 -2.765625 C 2.890625 -3.054688 2.703125 -3.203125 2.421875 -3.203125 C 2.222656 -3.203125 2.066406 -3.117188 1.953125 -2.953125 C 1.835938 -2.796875 1.78125 -2.5625 1.78125 -2.25 C 1.78125 -1.925781 1.835938 -1.679688 1.953125 -1.515625 C 2.066406 -1.359375 2.222656 -1.28125 2.421875 -1.28125 C 2.703125 -1.28125 2.890625 -1.425781 2.984375 -1.71875 L 4.640625 -1.71875 C 4.535156 -1.164062 4.285156 -0.726562 3.890625 -0.40625 C 3.503906 -0.09375 3.023438 0.0625 2.453125 0.0625 C 2.015625 0.0625 1.625 -0.03125 1.28125 -0.21875 C 0.9375 -0.40625 0.664062 -0.671875 0.46875 -1.015625 C 0.28125 -1.367188 0.1875 -1.78125 0.1875 -2.25 Z M 0.1875 -2.25 "/></g></g></g><g fill="#404040" fill-opacity="1"><g transform="translate(21.902627, 8.917253)"><g><path d="M 2.53125 0.0625 C 2.082031 0.0625 1.679688 -0.03125 1.328125 -0.21875 C 0.972656 -0.40625 0.691406 -0.671875 0.484375 -1.015625 C 0.285156 -1.367188 0.1875 -1.78125 0.1875 -2.25 C 0.1875 -2.707031 0.289062 -3.109375 0.5 -3.453125 C 0.707031 -3.796875 0.988281 -4.0625 1.34375 -4.25 C 1.695312 -4.4375 2.09375 -4.53125 2.53125 -4.53125 C 2.976562 -4.53125 3.378906 -4.4375 3.734375 -4.25 C 4.085938 -4.0625 4.367188 -3.796875 4.578125 -3.453125 C 4.785156 -3.109375 4.890625 -2.707031 4.890625 -2.25 C 4.890625 -1.78125 4.785156 -1.367188 4.578125 -1.015625 C 4.367188 -0.671875 4.085938 -0.40625 3.734375 -0.21875 C 3.378906 -0.03125 2.976562 0.0625 2.53125 0.0625 Z M 2.53125 -1.296875 C 2.75 -1.296875 2.929688 -1.375 3.078125 -1.53125 C 3.222656 -1.695312 3.296875 -1.9375 3.296875 -2.25 C 3.296875 -2.550781 3.222656 -2.78125 3.078125 -2.9375 C 2.929688 -3.09375 2.75 -3.171875 2.53125 -3.171875 C 2.320312 -3.171875 2.144531 -3.09375 2 -2.9375 C 1.851562 -2.78125 1.78125 -2.550781 1.78125 -2.25 C 1.78125 -1.9375 1.847656 -1.695312 1.984375 -1.53125 C 2.128906 -1.375 2.3125 -1.296875 2.53125 -1.296875 Z M 2.53125 -1.296875 "/></g></g></g><g fill="#404040" fill-opacity="1"><g transform="translate(26.977191, 8.917253)"><g><path d="M 6.296875 -4.515625 C 6.859375 -4.515625 7.300781 -4.34375 7.625 -4 C 7.945312 -3.664062 8.109375 -3.203125 8.109375 -2.609375 L 8.109375 0 L 6.546875 0 L 6.546875 -2.40625 C 6.546875 -2.644531 6.476562 -2.828125 6.34375 -2.953125 C 6.207031 -3.085938 6.023438 -3.15625 5.796875 -3.15625 C 5.578125 -3.15625 5.398438 -3.085938 5.265625 -2.953125 C 5.128906 -2.828125 5.0625 -2.644531 5.0625 -2.40625 L 5.0625 0 L 3.5 0 L 3.5 -2.40625 C 3.5 -2.644531 3.429688 -2.828125 3.296875 -2.953125 C 3.171875 -3.085938 2.992188 -3.15625 2.765625 -3.15625 C 2.523438 -3.15625 2.335938 -3.085938 2.203125 -2.953125 C 2.078125 -2.828125 2.015625 -2.644531 2.015625 -2.40625 L 2.015625 0 L 0.453125 0 L 0.453125 -4.484375 L 2.015625 -4.484375 L 2.015625 -3.890625 C 2.148438 -4.078125 2.328125 -4.226562 2.546875 -4.34375 C 2.765625 -4.457031 3.019531 -4.515625 3.3125 -4.515625 C 3.644531 -4.515625 3.9375 -4.441406 4.1875 -4.296875 C 4.445312 -4.160156 4.65625 -3.960938 4.8125 -3.703125 C 4.96875 -3.941406 5.175781 -4.132812 5.4375 -4.28125 C 5.695312 -4.4375 5.984375 -4.515625 6.296875 -4.515625 Z M 6.296875 -4.515625 "/></g></g></g><g fill="#404040" fill-opacity="1"><g transform="translate(35.490656, 8.917253)"><g><path d="M 4.734375 -2.296875 C 4.734375 -2.171875 4.722656 -2.046875 4.703125 -1.921875 L 1.734375 -1.921875 C 1.753906 -1.679688 1.820312 -1.5 1.9375 -1.375 C 2.0625 -1.257812 2.21875 -1.203125 2.40625 -1.203125 C 2.664062 -1.203125 2.851562 -1.316406 2.96875 -1.546875 L 4.625 -1.546875 C 4.5625 -1.234375 4.425781 -0.957031 4.21875 -0.71875 C 4.019531 -0.476562 3.769531 -0.285156 3.46875 -0.140625 C 3.164062 -0.00390625 2.832031 0.0625 2.46875 0.0625 C 2.019531 0.0625 1.625 -0.03125 1.28125 -0.21875 C 0.945312 -0.40625 0.679688 -0.671875 0.484375 -1.015625 C 0.285156 -1.367188 0.1875 -1.78125 0.1875 -2.25 C 0.1875 -2.71875 0.28125 -3.117188 0.46875 -3.453125 C 0.664062 -3.796875 0.9375 -4.0625 1.28125 -4.25 C 1.625 -4.4375 2.019531 -4.53125 2.46875 -4.53125 C 2.90625 -4.53125 3.296875 -4.441406 3.640625 -4.265625 C 3.984375 -4.085938 4.25 -3.828125 4.4375 -3.484375 C 4.632812 -3.148438 4.734375 -2.753906 4.734375 -2.296875 Z M 3.125 -2.6875 C 3.125 -2.875 3.0625 -3.019531 2.9375 -3.125 C 2.8125 -3.238281 2.648438 -3.296875 2.453125 -3.296875 C 2.265625 -3.296875 2.109375 -3.242188 1.984375 -3.140625 C 1.859375 -3.035156 1.78125 -2.882812 1.75 -2.6875 Z M 3.125 -2.6875 "/></g></g></g></g></g></g><g mask="url(#2cca24d610)"><g transform="matrix(1, 0, 0, 1, 276, 131)"><g clip-path="url(#d34bd00be2)"><g clip-path="url(#b49d8197e7)"><g fill="#404040" fill-opacity="1"><g transform="translate(0.564804, 8.220369)"><g><path d="M 8.375 -5.625 L 7 0 L 5.0625 0 L 4.296875 -3.453125 L 3.5 0 L 1.578125 0 L 0.21875 -5.625 L 1.90625 -5.625 L 2.5625 -1.78125 L 3.453125 -5.625 L 5.171875 -5.625 L 6.03125 -1.8125 L 6.6875 -5.625 Z M 8.375 -5.625 "/></g></g></g></g><g fill="#404040" fill-opacity="1"><g transform="translate(9.15008, 8.220369)"><g><path d="M 4.734375 -2.296875 C 4.734375 -2.171875 4.722656 -2.046875 4.703125 -1.921875 L 1.734375 -1.921875 C 1.753906 -1.679688 1.820312 -1.5 1.9375 -1.375 C 2.0625 -1.257812 2.21875 -1.203125 2.40625 -1.203125 C 2.664062 -1.203125 2.851562 -1.316406 2.96875 -1.546875 L 4.625 -1.546875 C 4.5625 -1.234375 4.425781 -0.957031 4.21875 -0.71875 C 4.019531 -0.476562 3.769531 -0.285156 3.46875 -0.140625 C 3.164062 -0.00390625 2.832031 0.0625 2.46875 0.0625 C 2.019531 0.0625 1.625 -0.03125 1.28125 -0.21875 C 0.945312 -0.40625 0.679688 -0.671875 0.484375 -1.015625 C 0.285156 -1.367188 0.1875 -1.78125 0.1875 -2.25 C 0.1875 -2.71875 0.28125 -3.117188 0.46875 -3.453125 C 0.664062 -3.796875 0.9375 -4.0625 1.28125 -4.25 C 1.625 -4.4375 2.019531 -4.53125 2.46875 -4.53125 C 2.90625 -4.53125 3.296875 -4.441406 3.640625 -4.265625 C 3.984375 -4.085938 4.25 -3.828125 4.4375 -3.484375 C 4.632812 -3.148438 4.734375 -2.753906 4.734375 -2.296875 Z M 3.125 -2.6875 C 3.125 -2.875 3.0625 -3.019531 2.9375 -3.125 C 2.8125 -3.238281 2.648438 -3.296875 2.453125 -3.296875 C 2.265625 -3.296875 2.109375 -3.242188 1.984375 -3.140625 C 1.859375 -3.035156 1.78125 -2.882812 1.75 -2.6875 Z M 3.125 -2.6875 "/></g></g></g><g fill="#404040" fill-opacity="1"><g transform="translate(14.065074, 8.220369)"><g><path d="M 2.015625 -5.90625 L 2.015625 0 L 0.453125 0 L 0.453125 -5.90625 Z M 2.015625 -5.90625 "/></g></g></g><g fill="#404040" fill-opacity="1"><g transform="translate(16.522571, 8.220369)"><g><path d="M 0.1875 -2.25 C 0.1875 -2.707031 0.28125 -3.109375 0.46875 -3.453125 C 0.664062 -3.796875 0.9375 -4.0625 1.28125 -4.25 C 1.625 -4.4375 2.015625 -4.53125 2.453125 -4.53125 C 3.023438 -4.53125 3.503906 -4.375 3.890625 -4.0625 C 4.285156 -3.75 4.535156 -3.316406 4.640625 -2.765625 L 2.984375 -2.765625 C 2.890625 -3.054688 2.703125 -3.203125 2.421875 -3.203125 C 2.222656 -3.203125 2.066406 -3.117188 1.953125 -2.953125 C 1.835938 -2.796875 1.78125 -2.5625 1.78125 -2.25 C 1.78125 -1.925781 1.835938 -1.679688 1.953125 -1.515625 C 2.066406 -1.359375 2.222656 -1.28125 2.421875 -1.28125 C 2.703125 -1.28125 2.890625 -1.425781 2.984375 -1.71875 L 4.640625 -1.71875 C 4.535156 -1.164062 4.285156 -0.726562 3.890625 -0.40625 C 3.503906 -0.09375 3.023438 0.0625 2.453125 0.0625 C 2.015625 0.0625 1.625 -0.03125 1.28125 -0.21875 C 0.9375 -0.40625 0.664062 -0.671875 0.46875 -1.015625 C 0.28125 -1.367188 0.1875 -1.78125 0.1875 -2.25 Z M 0.1875 -2.25 "/></g></g></g><g fill="#404040" fill-opacity="1"><g transform="translate(21.365755, 8.220369)"><g><path d="M 2.53125 0.0625 C 2.082031 0.0625 1.679688 -0.03125 1.328125 -0.21875 C 0.972656 -0.40625 0.691406 -0.671875 0.484375 -1.015625 C 0.285156 -1.367188 0.1875 -1.78125 0.1875 -2.25 C 0.1875 -2.707031 0.289062 -3.109375 0.5 -3.453125 C 0.707031 -3.796875 0.988281 -4.0625 1.34375 -4.25 C 1.695312 -4.4375 2.09375 -4.53125 2.53125 -4.53125 C 2.976562 -4.53125 3.378906 -4.4375 3.734375 -4.25 C 4.085938 -4.0625 4.367188 -3.796875 4.578125 -3.453125 C 4.785156 -3.109375 4.890625 -2.707031 4.890625 -2.25 C 4.890625 -1.78125 4.785156 -1.367188 4.578125 -1.015625 C 4.367188 -0.671875 4.085938 -0.40625 3.734375 -0.21875 C 3.378906 -0.03125 2.976562 0.0625 2.53125 0.0625 Z M 2.53125 -1.296875 C 2.75 -1.296875 2.929688 -1.375 3.078125 -1.53125 C 3.222656 -1.695312 3.296875 -1.9375 3.296875 -2.25 C 3.296875 -2.550781 3.222656 -2.78125 3.078125 -2.9375 C 2.929688 -3.09375 2.75 -3.171875 2.53125 -3.171875 C 2.320312 -3.171875 2.144531 -3.09375 2 -2.9375 C 1.851562 -2.78125 1.78125 -2.550781 1.78125 -2.25 C 1.78125 -1.9375 1.847656 -1.695312 1.984375 -1.53125 C 2.128906 -1.375 2.3125 -1.296875 2.53125 -1.296875 Z M 2.53125 -1.296875 "/></g></g></g><g fill="#404040" fill-opacity="1"><g transform="translate(26.440319, 8.220369)"><g><path d="M 6.296875 -4.515625 C 6.859375 -4.515625 7.300781 -4.34375 7.625 -4 C 7.945312 -3.664062 8.109375 -3.203125 8.109375 -2.609375 L 8.109375 0 L 6.546875 0 L 6.546875 -2.40625 C 6.546875 -2.644531 6.476562 -2.828125 6.34375 -2.953125 C 6.207031 -3.085938 6.023438 -3.15625 5.796875 -3.15625 C 5.578125 -3.15625 5.398438 -3.085938 5.265625 -2.953125 C 5.128906 -2.828125 5.0625 -2.644531 5.0625 -2.40625 L 5.0625 0 L 3.5 0 L 3.5 -2.40625 C 3.5 -2.644531 3.429688 -2.828125 3.296875 -2.953125 C 3.171875 -3.085938 2.992188 -3.15625 2.765625 -3.15625 C 2.523438 -3.15625 2.335938 -3.085938 2.203125 -2.953125 C 2.078125 -2.828125 2.015625 -2.644531 2.015625 -2.40625 L 2.015625 0 L 0.453125 0 L 0.453125 -4.484375 L 2.015625 -4.484375 L 2.015625 -3.890625 C 2.148438 -4.078125 2.328125 -4.226562 2.546875 -4.34375 C 2.765625 -4.457031 3.019531 -4.515625 3.3125 -4.515625 C 3.644531 -4.515625 3.9375 -4.441406 4.1875 -4.296875 C 4.445312 -4.160156 4.65625 -3.960938 4.8125 -3.703125 C 4.96875 -3.941406 5.175781 -4.132812 5.4375 -4.28125 C 5.695312 -4.4375 5.984375 -4.515625 6.296875 -4.515625 Z M 6.296875 -4.515625 "/></g></g></g><g fill="#404040" fill-opacity="1"><g transform="translate(34.953784, 8.220369)"><g><path d="M 4.734375 -2.296875 C 4.734375 -2.171875 4.722656 -2.046875 4.703125 -1.921875 L 1.734375 -1.921875 C 1.753906 -1.679688 1.820312 -1.5 1.9375 -1.375 C 2.0625 -1.257812 2.21875 -1.203125 2.40625 -1.203125 C 2.664062 -1.203125 2.851562 -1.316406 2.96875 -1.546875 L 4.625 -1.546875 C 4.5625 -1.234375 4.425781 -0.957031 4.21875 -0.71875 C 4.019531 -0.476562 3.769531 -0.285156 3.46875 -0.140625 C 3.164062 -0.00390625 2.832031 0.0625 2.46875 0.0625 C 2.019531 0.0625 1.625 -0.03125 1.28125 -0.21875 C 0.945312 -0.40625 0.679688 -0.671875 0.484375 -1.015625 C 0.285156 -1.367188 0.1875 -1.78125 0.1875 -2.25 C 0.1875 -2.71875 0.28125 -3.117188 0.46875 -3.453125 C 0.664062 -3.796875 0.9375 -4.0625 1.28125 -4.25 C 1.625 -4.4375 2.019531 -4.53125 2.46875 -4.53125 C 2.90625 -4.53125 3.296875 -4.441406 3.640625 -4.265625 C 3.984375 -4.085938 4.25 -3.828125 4.4375 -3.484375 C 4.632812 -3.148438 4.734375 -2.753906 4.734375 -2.296875 Z M 3.125 -2.6875 C 3.125 -2.875 3.0625 -3.019531 2.9375 -3.125 C 2.8125 -3.238281 2.648438 -3.296875 2.453125 -3.296875 C 2.265625 -3.296875 2.109375 -3.242188 1.984375 -3.140625 C 1.859375 -3.035156 1.78125 -2.882812 1.75 -2.6875 Z M 3.125 -2.6875 "/></g></g></g></g></g></g></svg>