<svg width="1000" height="902" viewBox="0 0 1000 902" fill="none" xmlns="http://www.w3.org/2000/svg">
<g filter="url(#filter0_d_1_12)">
<path d="M27 11C19.268 11 13 17.268 13 25V867C13 874.732 19.268 881 27 881H253.347C261.079 881 267.347 874.732 267.347 867V663.436C267.347 652.92 278.507 646.158 287.828 651.027L725.119 879.409C727.12 880.454 729.343 881 731.6 881H973C980.732 881 987 874.732 987 867V350.876C987 343.144 980.732 336.876 973 336.876H742.164C734.432 336.876 728.164 343.144 728.164 350.876V578.709C728.164 589.486 716.497 596.222 707.164 590.833L274.347 340.918C270.015 338.417 267.347 333.795 267.347 328.794V25C267.347 17.268 261.079 11 253.347 11H27Z" fill="#F7F7F7"/>
<path d="M27 11C19.268 11 13 17.268 13 25V867C13 874.732 19.268 881 27 881H253.347C261.079 881 267.347 874.732 267.347 867V663.436C267.347 652.92 278.507 646.158 287.828 651.027L725.119 879.409C727.12 880.454 729.343 881 731.6 881H973C980.732 881 987 874.732 987 867V350.876C987 343.144 980.732 336.876 973 336.876H742.164C734.432 336.876 728.164 343.144 728.164 350.876V578.709C728.164 589.486 716.497 596.222 707.164 590.833L274.347 340.918C270.015 338.417 267.347 333.795 267.347 328.794V25C267.347 17.268 261.079 11 253.347 11H27Z" stroke="#F7F7F7" stroke-width="14" stroke-linejoin="round"/>
</g>
<defs>
<filter id="filter0_d_1_12" x="-3" y="0" width="1006" height="902" filterUnits="userSpaceOnUse" color-interpolation-filters="sRGB">
<feFlood flood-opacity="0" result="BackgroundImageFix"/>
<feColorMatrix in="SourceAlpha" type="matrix" values="0 0 0 0 0 0 0 0 0 0 0 0 0 0 0 0 0 0 127 0" result="hardAlpha"/>
<feOffset dy="5"/>
<feGaussianBlur stdDeviation="4.5"/>
<feComposite in2="hardAlpha" operator="out"/>
<feColorMatrix type="matrix" values="0 0 0 0 0 0 0 0 0 0 0 0 0 0 0 0 0 0 0.14 0"/>
<feBlend mode="normal" in2="BackgroundImageFix" result="effect1_dropShadow_1_12"/>
<feBlend mode="normal" in="SourceGraphic" in2="effect1_dropShadow_1_12" result="shape"/>
</filter>
</defs>
</svg>
