<svg width="197" height="197" viewBox="0 0 197 197" fill="none" xmlns="http://www.w3.org/2000/svg">
<rect width="197" height="197" rx="5" fill="#314459"/>
<rect width="197" height="197" rx="5" fill="#463122" fill-opacity="0.38"/>
<path d="M29.9635 33.49V46H27.9115V33.49H29.9635ZM39.3854 37.558C39.7334 37.078 40.2074 36.688 40.8074 36.388C41.4194 36.076 42.0974 35.92 42.8414 35.92C43.7174 35.92 44.5094 36.13 45.2174 36.55C45.9254 36.97 46.4834 37.57 46.8914 38.35C47.2994 39.118 47.5034 40 47.5034 40.996C47.5034 41.992 47.2994 42.886 46.8914 43.678C46.4834 44.458 45.9194 45.07 45.1994 45.514C44.4914 45.946 43.7054 46.162 42.8414 46.162C42.0734 46.162 41.3894 46.012 40.7894 45.712C40.2014 45.412 39.7334 45.028 39.3854 44.56V46H37.3334V32.68H39.3854V37.558ZM45.4154 40.996C45.4154 40.312 45.2714 39.724 44.9834 39.232C44.7074 38.728 44.3354 38.35 43.8674 38.098C43.4114 37.834 42.9194 37.702 42.3914 37.702C41.8754 37.702 41.3834 37.834 40.9154 38.098C40.4594 38.362 40.0874 38.746 39.7994 39.25C39.5234 39.754 39.3854 40.348 39.3854 41.032C39.3854 41.716 39.5234 42.316 39.7994 42.832C40.0874 43.336 40.4594 43.72 40.9154 43.984C41.3834 44.248 41.8754 44.38 42.3914 44.38C42.9194 44.38 43.4114 44.248 43.8674 43.984C44.3354 43.708 44.7074 43.312 44.9834 42.796C45.2714 42.28 45.4154 41.68 45.4154 40.996ZM58.5146 36.082V46H56.4626V44.83C56.1386 45.238 55.7126 45.562 55.1846 45.802C54.6686 46.03 54.1166 46.144 53.5286 46.144C52.7486 46.144 52.0466 45.982 51.4226 45.658C50.8106 45.334 50.3246 44.854 49.9646 44.218C49.6166 43.582 49.4426 42.814 49.4426 41.914V36.082H51.4766V41.608C51.4766 42.496 51.6986 43.18 52.1426 43.66C52.5866 44.128 53.1926 44.362 53.9606 44.362C54.7286 44.362 55.3346 44.128 55.7786 43.66C56.2346 43.18 56.4626 42.496 56.4626 41.608V36.082H58.5146ZM62.2661 34.768C61.8941 34.768 61.5821 34.642 61.3301 34.39C61.0781 34.138 60.9521 33.826 60.9521 33.454C60.9521 33.082 61.0781 32.77 61.3301 32.518C61.5821 32.266 61.8941 32.14 62.2661 32.14C62.6261 32.14 62.9321 32.266 63.1841 32.518C63.4361 32.77 63.5621 33.082 63.5621 33.454C63.5621 33.826 63.4361 34.138 63.1841 34.39C62.9321 34.642 62.6261 34.768 62.2661 34.768ZM63.2741 36.082V46H61.2221V36.082H63.2741ZM68.0202 32.68V46H65.9682V32.68H68.0202ZM70.0303 40.996C70.0303 40 70.2343 39.118 70.6423 38.35C71.0623 37.582 71.6263 36.988 72.3343 36.568C73.0543 36.136 73.8523 35.92 74.7283 35.92C75.3763 35.92 76.0123 36.064 76.6363 36.352C77.2723 36.628 77.7763 37 78.1483 37.468V32.68H80.2183V46H78.1483V44.506C77.8123 44.986 77.3443 45.382 76.7443 45.694C76.1563 46.006 75.4783 46.162 74.7103 46.162C73.8463 46.162 73.0543 45.946 72.3343 45.514C71.6263 45.07 71.0623 44.458 70.6423 43.678C70.2343 42.886 70.0303 41.992 70.0303 40.996ZM78.1483 41.032C78.1483 40.348 78.0043 39.754 77.7163 39.25C77.4403 38.746 77.0743 38.362 76.6183 38.098C76.1623 37.834 75.6703 37.702 75.1423 37.702C74.6143 37.702 74.1223 37.834 73.6663 38.098C73.2103 38.35 72.8383 38.728 72.5503 39.232C72.2743 39.724 72.1363 40.312 72.1363 40.996C72.1363 41.68 72.2743 42.28 72.5503 42.796C72.8383 43.312 73.2103 43.708 73.6663 43.984C74.1343 44.248 74.6263 44.38 75.1423 44.38C75.6703 44.38 76.1623 44.248 76.6183 43.984C77.0743 43.72 77.4403 43.336 77.7163 42.832C78.0043 42.316 78.1483 41.716 78.1483 41.032ZM39.7256 67.996C39.7256 67 39.9296 66.118 40.3376 65.35C40.7576 64.582 41.3216 63.988 42.0296 63.568C42.7496 63.136 43.5416 62.92 44.4056 62.92C45.1856 62.92 45.8636 63.076 46.4396 63.388C47.0276 63.688 47.4956 64.066 47.8436 64.522V63.082H49.9136V73H47.8436V71.524C47.4956 71.992 47.0216 72.382 46.4216 72.694C45.8216 73.006 45.1376 73.162 44.3696 73.162C43.5176 73.162 42.7376 72.946 42.0296 72.514C41.3216 72.07 40.7576 71.458 40.3376 70.678C39.9296 69.886 39.7256 68.992 39.7256 67.996ZM47.8436 68.032C47.8436 67.348 47.6996 66.754 47.4116 66.25C47.1356 65.746 46.7696 65.362 46.3136 65.098C45.8576 64.834 45.3656 64.702 44.8376 64.702C44.3096 64.702 43.8176 64.834 43.3616 65.098C42.9056 65.35 42.5336 65.728 42.2456 66.232C41.9696 66.724 41.8316 67.312 41.8316 67.996C41.8316 68.68 41.9696 69.28 42.2456 69.796C42.5336 70.312 42.9056 70.708 43.3616 70.984C43.8296 71.248 44.3216 71.38 44.8376 71.38C45.3656 71.38 45.8576 71.248 46.3136 70.984C46.7696 70.72 47.1356 70.336 47.4116 69.832C47.6996 69.316 47.8436 68.716 47.8436 68.032ZM57.6128 62.92C58.3928 62.92 59.0888 63.082 59.7008 63.406C60.3248 63.73 60.8108 64.21 61.1588 64.846C61.5068 65.482 61.6808 66.25 61.6808 67.15V73H59.6468V67.456C59.6468 66.568 59.4248 65.89 58.9808 65.422C58.5368 64.942 57.9308 64.702 57.1628 64.702C56.3948 64.702 55.7828 64.942 55.3268 65.422C54.8828 65.89 54.6608 66.568 54.6608 67.456V73H52.6088V63.082H54.6608V64.216C54.9968 63.808 55.4228 63.49 55.9388 63.262C56.4668 63.034 57.0248 62.92 57.6128 62.92ZM63.6142 67.996C63.6142 67 63.8182 66.118 64.2262 65.35C64.6462 64.582 65.2102 63.988 65.9182 63.568C66.6382 63.136 67.4362 62.92 68.3122 62.92C68.9602 62.92 69.5962 63.064 70.2202 63.352C70.8562 63.628 71.3602 64 71.7322 64.468V59.68H73.8022V73H71.7322V71.506C71.3962 71.986 70.9282 72.382 70.3282 72.694C69.7402 73.006 69.0622 73.162 68.2942 73.162C67.4302 73.162 66.6382 72.946 65.9182 72.514C65.2102 72.07 64.6462 71.458 64.2262 70.678C63.8182 69.886 63.6142 68.992 63.6142 67.996ZM71.7322 68.032C71.7322 67.348 71.5882 66.754 71.3002 66.25C71.0242 65.746 70.6582 65.362 70.2022 65.098C69.7462 64.834 69.2542 64.702 68.7262 64.702C68.1982 64.702 67.7062 64.834 67.2502 65.098C66.7942 65.35 66.4222 65.728 66.1342 66.232C65.8582 66.724 65.7202 67.312 65.7202 67.996C65.7202 68.68 65.8582 69.28 66.1342 69.796C66.4222 70.312 66.7942 70.708 67.2502 70.984C67.7182 71.248 68.2102 71.38 68.7262 71.38C69.2542 71.38 69.7462 71.248 70.2022 70.984C70.6582 70.72 71.0242 70.336 71.3002 69.832C71.5882 69.316 71.7322 68.716 71.7322 68.032ZM40.1325 91.54C40.4805 91.084 40.9545 90.7 41.5545 90.388C42.1545 90.076 42.8325 89.92 43.5885 89.92C44.4525 89.92 45.2385 90.136 45.9465 90.568C46.6665 90.988 47.2305 91.582 47.6385 92.35C48.0465 93.118 48.2505 94 48.2505 94.996C48.2505 95.992 48.0465 96.886 47.6385 97.678C47.2305 98.458 46.6665 99.07 45.9465 99.514C45.2385 99.946 44.4525 100.162 43.5885 100.162C42.8325 100.162 42.1605 100.012 41.5725 99.712C40.9845 99.4 40.5045 99.016 40.1325 98.56V104.716H38.0805V90.082H40.1325V91.54ZM46.1625 94.996C46.1625 94.312 46.0185 93.724 45.7305 93.232C45.4545 92.728 45.0825 92.35 44.6145 92.098C44.1585 91.834 43.6665 91.702 43.1385 91.702C42.6225 91.702 42.1305 91.834 41.6625 92.098C41.2065 92.362 40.8345 92.746 40.5465 93.25C40.2705 93.754 40.1325 94.348 40.1325 95.032C40.1325 95.716 40.2705 96.316 40.5465 96.832C40.8345 97.336 41.2065 97.72 41.6625 97.984C42.1305 98.248 42.6225 98.38 43.1385 98.38C43.6665 98.38 44.1585 98.248 44.6145 97.984C45.0825 97.708 45.4545 97.312 45.7305 96.796C46.0185 96.28 46.1625 95.68 46.1625 94.996ZM52.3317 91.522C52.6317 91.018 53.0277 90.628 53.5197 90.352C54.0237 90.064 54.6177 89.92 55.3017 89.92V92.044H54.7797C53.9757 92.044 53.3637 92.248 52.9437 92.656C52.5357 93.064 52.3317 93.772 52.3317 94.78V100H50.2797V90.082H52.3317V91.522ZM61.4899 100.162C60.5539 100.162 59.7079 99.952 58.9519 99.532C58.1959 99.1 57.6019 98.5 57.1699 97.732C56.7379 96.952 56.5219 96.052 56.5219 95.032C56.5219 94.024 56.7439 93.13 57.1879 92.35C57.6319 91.57 58.2379 90.97 59.0059 90.55C59.7739 90.13 60.6319 89.92 61.5799 89.92C62.5279 89.92 63.3859 90.13 64.1539 90.55C64.9219 90.97 65.5279 91.57 65.9719 92.35C66.4159 93.13 66.6379 94.024 66.6379 95.032C66.6379 96.04 66.4099 96.934 65.9539 97.714C65.4979 98.494 64.8739 99.1 64.0819 99.532C63.3019 99.952 62.4379 100.162 61.4899 100.162ZM61.4899 98.38C62.0179 98.38 62.5099 98.254 62.9659 98.002C63.4339 97.75 63.8119 97.372 64.0999 96.868C64.3879 96.364 64.5319 95.752 64.5319 95.032C64.5319 94.312 64.3939 93.706 64.1179 93.214C63.8419 92.71 63.4759 92.332 63.0199 92.08C62.5639 91.828 62.0719 91.702 61.5439 91.702C61.0159 91.702 60.5239 91.828 60.0679 92.08C59.6239 92.332 59.2699 92.71 59.0059 93.214C58.7419 93.706 58.6099 94.312 58.6099 95.032C58.6099 96.1 58.8799 96.928 59.4199 97.516C59.9719 98.092 60.6619 98.38 61.4899 98.38ZM67.9824 94.996C67.9824 94 68.1864 93.118 68.5944 92.35C69.0144 91.582 69.5784 90.988 70.2864 90.568C71.0064 90.136 71.8044 89.92 72.6804 89.92C73.3284 89.92 73.9644 90.064 74.5884 90.352C75.2244 90.628 75.7284 91 76.1004 91.468V86.68H78.1704V100H76.1004V98.506C75.7644 98.986 75.2964 99.382 74.6964 99.694C74.1084 100.006 73.4304 100.162 72.6624 100.162C71.7984 100.162 71.0064 99.946 70.2864 99.514C69.5784 99.07 69.0144 98.458 68.5944 97.678C68.1864 96.886 67.9824 95.992 67.9824 94.996ZM76.1004 95.032C76.1004 94.348 75.9564 93.754 75.6684 93.25C75.3924 92.746 75.0264 92.362 74.5704 92.098C74.1144 91.834 73.6224 91.702 73.0944 91.702C72.5664 91.702 72.0744 91.834 71.6184 92.098C71.1624 92.35 70.7904 92.728 70.5024 93.232C70.2264 93.724 70.0884 94.312 70.0884 94.996C70.0884 95.68 70.2264 96.28 70.5024 96.796C70.7904 97.312 71.1624 97.708 71.6184 97.984C72.0864 98.248 72.5784 98.38 73.0944 98.38C73.6224 98.38 74.1144 98.248 74.5704 97.984C75.0264 97.72 75.3924 97.336 75.6684 96.832C75.9564 96.316 76.1004 95.716 76.1004 95.032ZM89.8476 90.082V100H87.7956V98.83C87.4716 99.238 87.0456 99.562 86.5176 99.802C86.0016 100.03 85.4496 100.144 84.8616 100.144C84.0816 100.144 83.3796 99.982 82.7556 99.658C82.1436 99.334 81.6576 98.854 81.2976 98.218C80.9496 97.582 80.7756 96.814 80.7756 95.914V90.082H82.8096V95.608C82.8096 96.496 83.0316 97.18 83.4756 97.66C83.9196 98.128 84.5256 98.362 85.2936 98.362C86.0616 98.362 86.6676 98.128 87.1116 97.66C87.5676 97.18 87.7956 96.496 87.7956 95.608V90.082H89.8476ZM91.8711 95.032C91.8711 94.012 92.0751 93.118 92.4831 92.35C92.9031 91.57 93.4791 90.97 94.2111 90.55C94.9431 90.13 95.7831 89.92 96.7311 89.92C97.9311 89.92 98.9211 90.208 99.7011 90.784C100.493 91.348 101.027 92.158 101.303 93.214H99.0891C98.9091 92.722 98.6211 92.338 98.2251 92.062C97.8291 91.786 97.3311 91.648 96.7311 91.648C95.8911 91.648 95.2191 91.948 94.7151 92.548C94.2231 93.136 93.9771 93.964 93.9771 95.032C93.9771 96.1 94.2231 96.934 94.7151 97.534C95.2191 98.134 95.8911 98.434 96.7311 98.434C97.9191 98.434 98.7051 97.912 99.0891 96.868H101.303C101.015 97.876 100.475 98.68 99.6831 99.28C98.8911 99.868 97.9071 100.162 96.7311 100.162C95.7831 100.162 94.9431 99.952 94.2111 99.532C93.4791 99.1 92.9031 98.5 92.4831 97.732C92.0751 96.952 91.8711 96.052 91.8711 95.032ZM105.742 91.756V97.246C105.742 97.618 105.826 97.888 105.994 98.056C106.174 98.212 106.474 98.29 106.894 98.29H108.154V100H106.534C105.61 100 104.902 99.784 104.41 99.352C103.918 98.92 103.672 98.218 103.672 97.246V91.756H102.502V90.082H103.672V87.616H105.742V90.082H108.154V91.756H105.742ZM113.645 100.162C112.865 100.162 112.163 100.024 111.539 99.748C110.927 99.46 110.441 99.076 110.081 98.596C109.721 98.104 109.529 97.558 109.505 96.958H111.629C111.665 97.378 111.863 97.732 112.223 98.02C112.595 98.296 113.057 98.434 113.609 98.434C114.185 98.434 114.629 98.326 114.941 98.11C115.265 97.882 115.427 97.594 115.427 97.246C115.427 96.874 115.247 96.598 114.887 96.418C114.539 96.238 113.981 96.04 113.213 95.824C112.469 95.62 111.863 95.422 111.395 95.23C110.927 95.038 110.519 94.744 110.171 94.348C109.835 93.952 109.667 93.43 109.667 92.782C109.667 92.254 109.823 91.774 110.135 91.342C110.447 90.898 110.891 90.55 111.467 90.298C112.055 90.046 112.727 89.92 113.483 89.92C114.611 89.92 115.517 90.208 116.201 90.784C116.897 91.348 117.269 92.122 117.317 93.106H115.265C115.229 92.662 115.049 92.308 114.725 92.044C114.401 91.78 113.963 91.648 113.411 91.648C112.871 91.648 112.457 91.75 112.169 91.954C111.881 92.158 111.737 92.428 111.737 92.764C111.737 93.028 111.833 93.25 112.025 93.43C112.217 93.61 112.451 93.754 112.727 93.862C113.003 93.958 113.411 94.084 113.951 94.24C114.671 94.432 115.259 94.63 115.715 94.834C116.183 95.026 116.585 95.314 116.921 95.698C117.257 96.082 117.431 96.592 117.443 97.228C117.443 97.792 117.287 98.296 116.975 98.74C116.663 99.184 116.219 99.532 115.643 99.784C115.079 100.036 114.413 100.162 113.645 100.162ZM126.73 91.756V97.246C126.73 97.618 126.814 97.888 126.982 98.056C127.162 98.212 127.462 98.29 127.882 98.29H129.142V100H127.522C126.598 100 125.89 99.784 125.398 99.352C124.906 98.92 124.66 98.218 124.66 97.246V91.756H123.49V90.082H124.66V87.616H126.73V90.082H129.142V91.756H126.73ZM136.164 89.92C136.92 89.92 137.592 90.082 138.18 90.406C138.78 90.73 139.248 91.21 139.584 91.846C139.932 92.482 140.106 93.25 140.106 94.15V100H138.072V94.456C138.072 93.568 137.85 92.89 137.406 92.422C136.962 91.942 136.356 91.702 135.588 91.702C134.82 91.702 134.208 91.942 133.752 92.422C133.308 92.89 133.086 93.568 133.086 94.456V100H131.034V86.68H133.086V91.234C133.434 90.814 133.872 90.49 134.4 90.262C134.94 90.034 135.528 89.92 136.164 89.92ZM142.039 94.996C142.039 94 142.243 93.118 142.651 92.35C143.071 91.582 143.635 90.988 144.343 90.568C145.063 90.136 145.855 89.92 146.719 89.92C147.499 89.92 148.177 90.076 148.753 90.388C149.341 90.688 149.809 91.066 150.157 91.522V90.082H152.227V100H150.157V98.524C149.809 98.992 149.335 99.382 148.735 99.694C148.135 100.006 147.451 100.162 146.683 100.162C145.831 100.162 145.051 99.946 144.343 99.514C143.635 99.07 143.071 98.458 142.651 97.678C142.243 96.886 142.039 95.992 142.039 94.996ZM150.157 95.032C150.157 94.348 150.013 93.754 149.725 93.25C149.449 92.746 149.083 92.362 148.627 92.098C148.171 91.834 147.679 91.702 147.151 91.702C146.623 91.702 146.131 91.834 145.675 92.098C145.219 92.35 144.847 92.728 144.559 93.232C144.283 93.724 144.145 94.312 144.145 94.996C144.145 95.68 144.283 96.28 144.559 96.796C144.847 97.312 145.219 97.708 145.675 97.984C146.143 98.248 146.635 98.38 147.151 98.38C147.679 98.38 148.171 98.248 148.627 97.984C149.083 97.72 149.449 97.336 149.725 96.832C150.013 96.316 150.157 95.716 150.157 95.032ZM157.316 91.756V97.246C157.316 97.618 157.4 97.888 157.568 98.056C157.748 98.212 158.048 98.29 158.468 98.29H159.728V100H158.108C157.184 100 156.476 99.784 155.984 99.352C155.492 98.92 155.246 98.218 155.246 97.246V91.756H154.076V90.082H155.246V87.616H157.316V90.082H159.728V91.756H157.316ZM22.2969 121.996C22.2969 121 22.5009 120.118 22.9089 119.35C23.3289 118.582 23.8929 117.988 24.6009 117.568C25.3209 117.136 26.1189 116.92 26.9949 116.92C27.6429 116.92 28.2789 117.064 28.9029 117.352C29.5389 117.628 30.0429 118 30.4149 118.468V113.68H32.4849V127H30.4149V125.506C30.0789 125.986 29.6109 126.382 29.0109 126.694C28.4229 127.006 27.7449 127.162 26.9769 127.162C26.1129 127.162 25.3209 126.946 24.6009 126.514C23.8929 126.07 23.3289 125.458 22.9089 124.678C22.5009 123.886 22.2969 122.992 22.2969 121.996ZM30.4149 122.032C30.4149 121.348 30.2709 120.754 29.9829 120.25C29.7069 119.746 29.3409 119.362 28.8849 119.098C28.4289 118.834 27.9369 118.702 27.4089 118.702C26.8809 118.702 26.3889 118.834 25.9329 119.098C25.4769 119.35 25.1049 119.728 24.8169 120.232C24.5409 120.724 24.4029 121.312 24.4029 121.996C24.4029 122.68 24.5409 123.28 24.8169 123.796C25.1049 124.312 25.4769 124.708 25.9329 124.984C26.4009 125.248 26.8929 125.38 27.4089 125.38C27.9369 125.38 28.4289 125.248 28.8849 124.984C29.3409 124.72 29.7069 124.336 29.9829 123.832C30.2709 123.316 30.4149 122.716 30.4149 122.032ZM44.2701 121.798C44.2701 122.17 44.2461 122.506 44.1981 122.806H36.6201C36.6801 123.598 36.9741 124.234 37.5021 124.714C38.0301 125.194 38.6781 125.434 39.4461 125.434C40.5501 125.434 41.3301 124.972 41.7861 124.048H44.0001C43.7001 124.96 43.1541 125.71 42.3621 126.298C41.5821 126.874 40.6101 127.162 39.4461 127.162C38.4981 127.162 37.6461 126.952 36.8901 126.532C36.1461 126.1 35.5581 125.5 35.1261 124.732C34.7061 123.952 34.4961 123.052 34.4961 122.032C34.4961 121.012 34.7001 120.118 35.1081 119.35C35.5281 118.57 36.1101 117.97 36.8541 117.55C37.6101 117.13 38.4741 116.92 39.4461 116.92C40.3821 116.92 41.2161 117.124 41.9481 117.532C42.6801 117.94 43.2501 118.516 43.6581 119.26C44.0661 119.992 44.2701 120.838 44.2701 121.798ZM42.1281 121.15C42.1161 120.394 41.8461 119.788 41.3181 119.332C40.7901 118.876 40.1361 118.648 39.3561 118.648C38.6481 118.648 38.0421 118.876 37.5381 119.332C37.0341 119.776 36.7341 120.382 36.6381 121.15H42.1281ZM58.2955 116.92C59.0755 116.92 59.7715 117.082 60.3835 117.406C61.0075 117.73 61.4935 118.21 61.8415 118.846C62.2015 119.482 62.3815 120.25 62.3815 121.15V127H60.3475V121.456C60.3475 120.568 60.1255 119.89 59.6815 119.422C59.2375 118.942 58.6315 118.702 57.8635 118.702C57.0955 118.702 56.4835 118.942 56.0275 119.422C55.5835 119.89 55.3615 120.568 55.3615 121.456V127H53.3275V121.456C53.3275 120.568 53.1055 119.89 52.6615 119.422C52.2175 118.942 51.6115 118.702 50.8435 118.702C50.0755 118.702 49.4635 118.942 49.0075 119.422C48.5635 119.89 48.3415 120.568 48.3415 121.456V127H46.2895V117.082H48.3415V118.216C48.6775 117.808 49.1035 117.49 49.6195 117.262C50.1355 117.034 50.6875 116.92 51.2755 116.92C52.0675 116.92 52.7755 117.088 53.3995 117.424C54.0235 117.76 54.5035 118.246 54.8395 118.882C55.1395 118.282 55.6075 117.808 56.2435 117.46C56.8795 117.1 57.5635 116.92 58.2955 116.92ZM64.3086 121.996C64.3086 121 64.5126 120.118 64.9206 119.35C65.3406 118.582 65.9046 117.988 66.6126 117.568C67.3326 117.136 68.1246 116.92 68.9886 116.92C69.7686 116.92 70.4466 117.076 71.0226 117.388C71.6106 117.688 72.0786 118.066 72.4266 118.522V117.082H74.4966V127H72.4266V125.524C72.0786 125.992 71.6046 126.382 71.0046 126.694C70.4046 127.006 69.7206 127.162 68.9526 127.162C68.1006 127.162 67.3206 126.946 66.6126 126.514C65.9046 126.07 65.3406 125.458 64.9206 124.678C64.5126 123.886 64.3086 122.992 64.3086 121.996ZM72.4266 122.032C72.4266 121.348 72.2826 120.754 71.9946 120.25C71.7186 119.746 71.3526 119.362 70.8966 119.098C70.4406 118.834 69.9486 118.702 69.4206 118.702C68.8926 118.702 68.4006 118.834 67.9446 119.098C67.4886 119.35 67.1166 119.728 66.8286 120.232C66.5526 120.724 66.4146 121.312 66.4146 121.996C66.4146 122.68 66.5526 123.28 66.8286 123.796C67.1166 124.312 67.4886 124.708 67.9446 124.984C68.4126 125.248 68.9046 125.38 69.4206 125.38C69.9486 125.38 70.4406 125.248 70.8966 124.984C71.3526 124.72 71.7186 124.336 71.9946 123.832C72.2826 123.316 72.4266 122.716 72.4266 122.032ZM82.1958 116.92C82.9758 116.92 83.6718 117.082 84.2838 117.406C84.9078 117.73 85.3938 118.21 85.7418 118.846C86.0898 119.482 86.2638 120.25 86.2638 121.15V127H84.2298V121.456C84.2298 120.568 84.0078 119.89 83.5638 119.422C83.1198 118.942 82.5138 118.702 81.7458 118.702C80.9778 118.702 80.3658 118.942 79.9098 119.422C79.4658 119.89 79.2438 120.568 79.2438 121.456V127H77.1918V117.082H79.2438V118.216C79.5798 117.808 80.0058 117.49 80.5218 117.262C81.0498 117.034 81.6078 116.92 82.1958 116.92ZM88.1973 121.996C88.1973 121 88.4013 120.118 88.8093 119.35C89.2293 118.582 89.7933 117.988 90.5013 117.568C91.2213 117.136 92.0193 116.92 92.8953 116.92C93.5433 116.92 94.1793 117.064 94.8033 117.352C95.4393 117.628 95.9433 118 96.3153 118.468V113.68H98.3853V127H96.3153V125.506C95.9793 125.986 95.5113 126.382 94.9113 126.694C94.3233 127.006 93.6453 127.162 92.8773 127.162C92.0133 127.162 91.2213 126.946 90.5013 126.514C89.7933 126.07 89.2293 125.458 88.8093 124.678C88.4013 123.886 88.1973 122.992 88.1973 121.996ZM96.3153 122.032C96.3153 121.348 96.1713 120.754 95.8833 120.25C95.6073 119.746 95.2413 119.362 94.7853 119.098C94.3293 118.834 93.8373 118.702 93.3093 118.702C92.7813 118.702 92.2893 118.834 91.8333 119.098C91.3773 119.35 91.0053 119.728 90.7173 120.232C90.4413 120.724 90.3033 121.312 90.3033 121.996C90.3033 122.68 90.4413 123.28 90.7173 123.796C91.0053 124.312 91.3773 124.708 91.8333 124.984C92.3013 125.248 92.7933 125.38 93.3093 125.38C93.8373 125.38 94.3293 125.248 94.7853 124.984C95.2413 124.72 95.6073 124.336 95.8833 123.832C96.1713 123.316 96.3153 122.716 96.3153 122.032ZM107.808 118.54C108.156 118.084 108.63 117.7 109.23 117.388C109.83 117.076 110.508 116.92 111.264 116.92C112.128 116.92 112.914 117.136 113.622 117.568C114.342 117.988 114.906 118.582 115.314 119.35C115.722 120.118 115.926 121 115.926 121.996C115.926 122.992 115.722 123.886 115.314 124.678C114.906 125.458 114.342 126.07 113.622 126.514C112.914 126.946 112.128 127.162 111.264 127.162C110.508 127.162 109.836 127.012 109.248 126.712C108.66 126.4 108.18 126.016 107.808 125.56V131.716H105.756V117.082H107.808V118.54ZM113.838 121.996C113.838 121.312 113.694 120.724 113.406 120.232C113.13 119.728 112.758 119.35 112.29 119.098C111.834 118.834 111.342 118.702 110.814 118.702C110.298 118.702 109.806 118.834 109.338 119.098C108.882 119.362 108.51 119.746 108.222 120.25C107.946 120.754 107.808 121.348 107.808 122.032C107.808 122.716 107.946 123.316 108.222 123.832C108.51 124.336 108.882 124.72 109.338 124.984C109.806 125.248 110.298 125.38 110.814 125.38C111.342 125.38 111.834 125.248 112.29 124.984C112.758 124.708 113.13 124.312 113.406 123.796C113.694 123.28 113.838 122.68 113.838 121.996ZM122.257 127.162C121.321 127.162 120.475 126.952 119.719 126.532C118.963 126.1 118.369 125.5 117.937 124.732C117.505 123.952 117.289 123.052 117.289 122.032C117.289 121.024 117.511 120.13 117.955 119.35C118.399 118.57 119.005 117.97 119.773 117.55C120.541 117.13 121.399 116.92 122.347 116.92C123.295 116.92 124.153 117.13 124.921 117.55C125.689 117.97 126.295 118.57 126.739 119.35C127.183 120.13 127.405 121.024 127.405 122.032C127.405 123.04 127.177 123.934 126.721 124.714C126.265 125.494 125.641 126.1 124.849 126.532C124.069 126.952 123.205 127.162 122.257 127.162ZM122.257 125.38C122.785 125.38 123.277 125.254 123.733 125.002C124.201 124.75 124.579 124.372 124.867 123.868C125.155 123.364 125.299 122.752 125.299 122.032C125.299 121.312 125.161 120.706 124.885 120.214C124.609 119.71 124.243 119.332 123.787 119.08C123.331 118.828 122.839 118.702 122.311 118.702C121.783 118.702 121.291 118.828 120.835 119.08C120.391 119.332 120.037 119.71 119.773 120.214C119.509 120.706 119.377 121.312 119.377 122.032C119.377 123.1 119.647 123.928 120.187 124.516C120.739 125.092 121.429 125.38 122.257 125.38ZM133.034 127.162C132.254 127.162 131.552 127.024 130.928 126.748C130.316 126.46 129.83 126.076 129.47 125.596C129.11 125.104 128.918 124.558 128.894 123.958H131.018C131.054 124.378 131.252 124.732 131.612 125.02C131.984 125.296 132.446 125.434 132.998 125.434C133.574 125.434 134.018 125.326 134.33 125.11C134.654 124.882 134.816 124.594 134.816 124.246C134.816 123.874 134.636 123.598 134.276 123.418C133.928 123.238 133.37 123.04 132.602 122.824C131.858 122.62 131.252 122.422 130.784 122.23C130.316 122.038 129.908 121.744 129.56 121.348C129.224 120.952 129.056 120.43 129.056 119.782C129.056 119.254 129.212 118.774 129.524 118.342C129.836 117.898 130.28 117.55 130.856 117.298C131.444 117.046 132.116 116.92 132.872 116.92C134 116.92 134.906 117.208 135.59 117.784C136.286 118.348 136.658 119.122 136.706 120.106H134.654C134.618 119.662 134.438 119.308 134.114 119.044C133.79 118.78 133.352 118.648 132.8 118.648C132.26 118.648 131.846 118.75 131.558 118.954C131.27 119.158 131.126 119.428 131.126 119.764C131.126 120.028 131.222 120.25 131.414 120.43C131.606 120.61 131.84 120.754 132.116 120.862C132.392 120.958 132.8 121.084 133.34 121.24C134.06 121.432 134.648 121.63 135.104 121.834C135.572 122.026 135.974 122.314 136.31 122.698C136.646 123.082 136.82 123.592 136.832 124.228C136.832 124.792 136.676 125.296 136.364 125.74C136.052 126.184 135.608 126.532 135.032 126.784C134.468 127.036 133.802 127.162 133.034 127.162ZM140.093 115.768C139.721 115.768 139.409 115.642 139.157 115.39C138.905 115.138 138.779 114.826 138.779 114.454C138.779 114.082 138.905 113.77 139.157 113.518C139.409 113.266 139.721 113.14 140.093 113.14C140.453 113.14 140.759 113.266 141.011 113.518C141.263 113.77 141.389 114.082 141.389 114.454C141.389 114.826 141.263 115.138 141.011 115.39C140.759 115.642 140.453 115.768 140.093 115.768ZM141.101 117.082V127H139.049V117.082H141.101ZM146.189 118.756V124.246C146.189 124.618 146.273 124.888 146.441 125.056C146.621 125.212 146.921 125.29 147.341 125.29H148.601V127H146.981C146.057 127 145.349 126.784 144.857 126.352C144.365 125.92 144.119 125.218 144.119 124.246V118.756H142.949V117.082H144.119V114.616H146.189V117.082H148.601V118.756H146.189ZM151.537 115.768C151.165 115.768 150.853 115.642 150.601 115.39C150.349 115.138 150.223 114.826 150.223 114.454C150.223 114.082 150.349 113.77 150.601 113.518C150.853 113.266 151.165 113.14 151.537 113.14C151.897 113.14 152.203 113.266 152.455 113.518C152.707 113.77 152.833 114.082 152.833 114.454C152.833 114.826 152.707 115.138 152.455 115.39C152.203 115.642 151.897 115.768 151.537 115.768ZM152.545 117.082V127H150.493V117.082H152.545ZM159.073 125.164L161.881 117.082H164.059L160.279 127H157.831L154.069 117.082H156.265L159.073 125.164ZM174.7 121.798C174.7 122.17 174.676 122.506 174.628 122.806H167.05C167.11 123.598 167.404 124.234 167.932 124.714C168.46 125.194 169.108 125.434 169.876 125.434C170.98 125.434 171.76 124.972 172.216 124.048H174.43C174.13 124.96 173.584 125.71 172.792 126.298C172.012 126.874 171.04 127.162 169.876 127.162C168.928 127.162 168.076 126.952 167.32 126.532C166.576 126.1 165.988 125.5 165.556 124.732C165.136 123.952 164.926 123.052 164.926 122.032C164.926 121.012 165.13 120.118 165.538 119.35C165.958 118.57 166.54 117.97 167.284 117.55C168.04 117.13 168.904 116.92 169.876 116.92C170.812 116.92 171.646 117.124 172.378 117.532C173.11 117.94 173.68 118.516 174.088 119.26C174.496 119.992 174.7 120.838 174.7 121.798ZM172.558 121.15C172.546 120.394 172.276 119.788 171.748 119.332C171.22 118.876 170.566 118.648 169.786 118.648C169.078 118.648 168.472 118.876 167.968 119.332C167.464 119.776 167.164 120.382 167.068 121.15H172.558ZM69.5407 145.522C69.8407 145.018 70.2367 144.628 70.7287 144.352C71.2327 144.064 71.8267 143.92 72.5107 143.92V146.044H71.9887C71.1847 146.044 70.5727 146.248 70.1527 146.656C69.7447 147.064 69.5407 147.772 69.5407 148.78V154H67.4887V144.082H69.5407V145.522ZM83.4869 148.798C83.4869 149.17 83.4629 149.506 83.4149 149.806H75.8369C75.8969 150.598 76.1909 151.234 76.7189 151.714C77.2469 152.194 77.8949 152.434 78.6629 152.434C79.7669 152.434 80.5469 151.972 81.0029 151.048H83.2169C82.9169 151.96 82.3709 152.71 81.5789 153.298C80.7989 153.874 79.8269 154.162 78.6629 154.162C77.7149 154.162 76.8629 153.952 76.1069 153.532C75.3629 153.1 74.7749 152.5 74.3429 151.732C73.9229 150.952 73.7129 150.052 73.7129 149.032C73.7129 148.012 73.9169 147.118 74.3249 146.35C74.7449 145.57 75.3269 144.97 76.0709 144.55C76.8269 144.13 77.6909 143.92 78.6629 143.92C79.5989 143.92 80.4329 144.124 81.1649 144.532C81.8969 144.94 82.4669 145.516 82.8749 146.26C83.2829 146.992 83.4869 147.838 83.4869 148.798ZM81.3449 148.15C81.3329 147.394 81.0629 146.788 80.5349 146.332C80.0069 145.876 79.3529 145.648 78.5729 145.648C77.8649 145.648 77.2589 145.876 76.7549 146.332C76.2509 146.776 75.9509 147.382 75.8549 148.15H81.3449ZM89.1063 154.162C88.3263 154.162 87.6243 154.024 87.0003 153.748C86.3883 153.46 85.9023 153.076 85.5423 152.596C85.1823 152.104 84.9903 151.558 84.9663 150.958H87.0903C87.1263 151.378 87.3243 151.732 87.6843 152.02C88.0563 152.296 88.5183 152.434 89.0703 152.434C89.6463 152.434 90.0903 152.326 90.4023 152.11C90.7263 151.882 90.8883 151.594 90.8883 151.246C90.8883 150.874 90.7083 150.598 90.3483 150.418C90.0003 150.238 89.4423 150.04 88.6743 149.824C87.9303 149.62 87.3243 149.422 86.8563 149.23C86.3883 149.038 85.9803 148.744 85.6323 148.348C85.2963 147.952 85.1283 147.43 85.1283 146.782C85.1283 146.254 85.2843 145.774 85.5963 145.342C85.9083 144.898 86.3523 144.55 86.9283 144.298C87.5163 144.046 88.1883 143.92 88.9443 143.92C90.0723 143.92 90.9783 144.208 91.6623 144.784C92.3583 145.348 92.7303 146.122 92.7783 147.106H90.7263C90.6903 146.662 90.5103 146.308 90.1863 146.044C89.8623 145.78 89.4243 145.648 88.8723 145.648C88.3323 145.648 87.9183 145.75 87.6303 145.954C87.3423 146.158 87.1983 146.428 87.1983 146.764C87.1983 147.028 87.2943 147.25 87.4863 147.43C87.6783 147.61 87.9123 147.754 88.1883 147.862C88.4643 147.958 88.8723 148.084 89.4123 148.24C90.1323 148.432 90.7203 148.63 91.1763 148.834C91.6443 149.026 92.0463 149.314 92.3823 149.698C92.7183 150.082 92.8923 150.592 92.9043 151.228C92.9043 151.792 92.7483 152.296 92.4363 152.74C92.1243 153.184 91.6803 153.532 91.1043 153.784C90.5403 154.036 89.8743 154.162 89.1063 154.162ZM104.103 144.082V154H102.051V152.83C101.727 153.238 101.301 153.562 100.773 153.802C100.257 154.03 99.7055 154.144 99.1175 154.144C98.3375 154.144 97.6355 153.982 97.0115 153.658C96.3995 153.334 95.9135 152.854 95.5535 152.218C95.2055 151.582 95.0315 150.814 95.0315 149.914V144.082H97.0655V149.608C97.0655 150.496 97.2875 151.18 97.7315 151.66C98.1755 152.128 98.7815 152.362 99.5495 152.362C100.317 152.362 100.923 152.128 101.367 151.66C101.823 151.18 102.051 150.496 102.051 149.608V144.082H104.103ZM108.863 140.68V154H106.811V140.68H108.863ZM113.951 145.756V151.246C113.951 151.618 114.035 151.888 114.203 152.056C114.383 152.212 114.683 152.29 115.103 152.29H116.363V154H114.743C113.819 154 113.111 153.784 112.619 153.352C112.127 152.92 111.881 152.218 111.881 151.246V145.756H110.711V144.082H111.881V141.616H113.951V144.082H116.363V145.756H113.951ZM121.854 154.162C121.074 154.162 120.372 154.024 119.748 153.748C119.136 153.46 118.65 153.076 118.29 152.596C117.93 152.104 117.738 151.558 117.714 150.958H119.838C119.874 151.378 120.072 151.732 120.432 152.02C120.804 152.296 121.266 152.434 121.818 152.434C122.394 152.434 122.838 152.326 123.15 152.11C123.474 151.882 123.636 151.594 123.636 151.246C123.636 150.874 123.456 150.598 123.096 150.418C122.748 150.238 122.19 150.04 121.422 149.824C120.678 149.62 120.072 149.422 119.604 149.23C119.136 149.038 118.728 148.744 118.38 148.348C118.044 147.952 117.876 147.43 117.876 146.782C117.876 146.254 118.032 145.774 118.344 145.342C118.656 144.898 119.1 144.55 119.676 144.298C120.264 144.046 120.936 143.92 121.692 143.92C122.82 143.92 123.726 144.208 124.41 144.784C125.106 145.348 125.478 146.122 125.526 147.106H123.474C123.438 146.662 123.258 146.308 122.934 146.044C122.61 145.78 122.172 145.648 121.62 145.648C121.08 145.648 120.666 145.75 120.378 145.954C120.09 146.158 119.946 146.428 119.946 146.764C119.946 147.028 120.042 147.25 120.234 147.43C120.426 147.61 120.66 147.754 120.936 147.862C121.212 147.958 121.62 148.084 122.16 148.24C122.88 148.432 123.468 148.63 123.924 148.834C124.392 149.026 124.794 149.314 125.13 149.698C125.466 150.082 125.64 150.592 125.652 151.228C125.652 151.792 125.496 152.296 125.184 152.74C124.872 153.184 124.428 153.532 123.852 153.784C123.288 154.036 122.622 154.162 121.854 154.162ZM128.698 154.126C128.326 154.126 128.014 154 127.762 153.748C127.51 153.496 127.384 153.184 127.384 152.812C127.384 152.44 127.51 152.128 127.762 151.876C128.014 151.624 128.326 151.498 128.698 151.498C129.058 151.498 129.364 151.624 129.616 151.876C129.868 152.128 129.994 152.44 129.994 152.812C129.994 153.184 129.868 153.496 129.616 153.748C129.364 154 129.058 154.126 128.698 154.126Z" fill="#F7F7F7"/>
<path d="M91.0273 37.378C91.4113 36.91 91.8973 36.532 92.4853 36.244C93.0733 35.956 93.7153 35.812 94.4113 35.812C95.4913 35.812 96.3613 36.166 97.0213 36.874C97.6933 37.57 98.0293 38.524 98.0293 39.736C98.0293 40.12 97.9933 40.528 97.9213 40.96C97.7413 41.992 97.3873 42.904 96.8593 43.696C96.3313 44.476 95.6953 45.082 94.9513 45.514C94.2073 45.934 93.4213 46.144 92.5933 46.144C91.8853 46.144 91.2913 46.006 90.8113 45.73C90.3313 45.442 89.9833 45.064 89.7673 44.596L89.5153 46H86.4373L88.7953 32.68H91.8733L91.0273 37.378ZM94.8073 40.96C94.8433 40.756 94.8613 40.57 94.8613 40.402C94.8613 39.802 94.6873 39.334 94.3393 38.998C94.0033 38.662 93.5713 38.494 93.0433 38.494C92.4313 38.494 91.8733 38.716 91.3693 39.16C90.8653 39.604 90.5413 40.21 90.3973 40.978C90.3613 41.194 90.3433 41.392 90.3433 41.572C90.3433 42.16 90.5113 42.622 90.8473 42.958C91.1833 43.294 91.6153 43.462 92.1433 43.462C92.7553 43.462 93.3133 43.24 93.8173 42.796C94.3333 42.34 94.6633 41.728 94.8073 40.96ZM104.918 35.812C106.214 35.812 107.24 36.166 107.996 36.874C108.764 37.57 109.148 38.524 109.148 39.736C109.148 40.132 109.118 40.486 109.058 40.798C109.01 41.074 108.938 41.368 108.842 41.68H101.876C101.864 41.752 101.858 41.866 101.858 42.022C101.858 42.55 102.002 42.952 102.29 43.228C102.578 43.504 102.962 43.642 103.442 43.642C104.21 43.642 104.798 43.318 105.206 42.67H108.482C108.05 43.69 107.348 44.524 106.376 45.172C105.404 45.82 104.312 46.144 103.1 46.144C101.804 46.144 100.766 45.784 99.9861 45.064C99.2181 44.344 98.8341 43.366 98.8341 42.13C98.8341 41.758 98.8701 41.374 98.9421 40.978C99.1221 39.934 99.4941 39.022 100.058 38.242C100.622 37.462 101.324 36.862 102.164 36.442C103.004 36.022 103.922 35.812 104.918 35.812ZM106.034 40.114C106.058 39.946 106.07 39.832 106.07 39.772C106.07 39.292 105.92 38.926 105.62 38.674C105.32 38.41 104.924 38.278 104.432 38.278C103.904 38.278 103.436 38.44 103.028 38.764C102.632 39.076 102.344 39.526 102.164 40.114H106.034ZM110.034 40.96C110.214 39.928 110.568 39.022 111.096 38.242C111.624 37.462 112.26 36.862 113.004 36.442C113.748 36.022 114.534 35.812 115.362 35.812C116.07 35.812 116.664 35.956 117.144 36.244C117.624 36.532 117.972 36.91 118.188 37.378L118.44 35.956H121.518L119.736 46H116.658L116.928 44.578C116.544 45.046 116.058 45.424 115.47 45.712C114.882 46 114.234 46.144 113.526 46.144C112.818 46.144 112.188 45.982 111.636 45.658C111.096 45.334 110.676 44.878 110.376 44.29C110.076 43.69 109.926 42.988 109.926 42.184C109.926 41.8 109.962 41.392 110.034 40.96ZM117.558 40.978C117.594 40.762 117.612 40.564 117.612 40.384C117.612 39.796 117.438 39.334 117.09 38.998C116.754 38.662 116.322 38.494 115.794 38.494C115.182 38.494 114.624 38.716 114.12 39.16C113.616 39.592 113.298 40.192 113.166 40.96C113.13 41.176 113.112 41.374 113.112 41.554C113.112 42.142 113.28 42.61 113.616 42.958C113.964 43.294 114.396 43.462 114.912 43.462C115.524 43.462 116.082 43.24 116.586 42.796C117.09 42.352 117.414 41.746 117.558 40.978ZM133.645 35.956L131.881 46H128.803L129.037 44.632C128.641 45.076 128.155 45.436 127.579 45.712C127.015 45.976 126.409 46.108 125.761 46.108C124.753 46.108 123.961 45.826 123.385 45.262C122.809 44.686 122.521 43.888 122.521 42.868C122.521 42.484 122.551 42.136 122.611 41.824L123.655 35.956H126.715L125.761 41.41C125.725 41.602 125.707 41.788 125.707 41.968C125.707 42.472 125.845 42.862 126.121 43.138C126.409 43.402 126.805 43.534 127.309 43.534C127.885 43.534 128.371 43.366 128.767 43.03C129.175 42.682 129.445 42.19 129.577 41.554L130.567 35.956H133.645ZM138.268 42.544C138.256 42.604 138.25 42.682 138.25 42.778C138.25 42.994 138.31 43.15 138.43 43.246C138.562 43.342 138.772 43.39 139.06 43.39H140.158L139.69 46H138.124C136.108 46 135.1 45.154 135.1 43.462C135.1 43.21 135.13 42.892 135.19 42.508L135.91 38.512H134.686L135.136 35.956H136.36L136.792 33.508H139.87L139.438 35.956H141.454L141.004 38.512H138.988L138.268 42.544ZM144.914 34.912C144.434 34.912 144.05 34.786 143.762 34.534C143.486 34.27 143.348 33.94 143.348 33.544C143.348 33.004 143.558 32.542 143.978 32.158C144.398 31.774 144.908 31.582 145.508 31.582C145.988 31.582 146.366 31.714 146.642 31.978C146.918 32.23 147.056 32.56 147.056 32.968C147.056 33.496 146.846 33.952 146.426 34.336C146.006 34.72 145.502 34.912 144.914 34.912ZM146.246 35.956L144.482 46H141.404L143.168 35.956H146.246ZM153.733 34.516C153.145 34.48 152.713 34.564 152.437 34.768C152.173 34.972 151.993 35.338 151.897 35.866L151.879 35.956H153.535L153.085 38.512H151.429L150.115 46H147.019L148.333 38.512H147.217L147.667 35.956H148.783L148.837 35.668C149.065 34.432 149.587 33.496 150.403 32.86C151.231 32.212 152.329 31.888 153.697 31.888C153.913 31.888 154.075 31.894 154.183 31.906L153.733 34.516ZM164.881 35.956L163.117 46H160.039L160.273 44.632C159.877 45.076 159.391 45.436 158.815 45.712C158.251 45.976 157.645 46.108 156.997 46.108C155.989 46.108 155.197 45.826 154.621 45.262C154.045 44.686 153.757 43.888 153.757 42.868C153.757 42.484 153.787 42.136 153.847 41.824L154.891 35.956H157.951L156.997 41.41C156.961 41.602 156.943 41.788 156.943 41.968C156.943 42.472 157.081 42.862 157.357 43.138C157.645 43.402 158.041 43.534 158.545 43.534C159.121 43.534 159.607 43.366 160.003 43.03C160.411 42.682 160.681 42.19 160.813 41.554L161.803 35.956H164.881ZM170.764 32.68L168.406 46H165.328L167.686 32.68H170.764ZM84.5392 64.774C85.0072 64.174 85.5412 63.706 86.1412 63.37C86.7532 63.022 87.3892 62.848 88.0492 62.848L87.4732 66.106H86.6272C85.8592 66.106 85.2532 66.274 84.8092 66.61C84.3652 66.934 84.0712 67.51 83.9272 68.338L83.0992 73H80.0212L81.7852 62.956H84.8632L84.5392 64.774ZM93.9845 62.812C95.2805 62.812 96.3065 63.166 97.0625 63.874C97.8305 64.57 98.2145 65.524 98.2145 66.736C98.2145 67.132 98.1845 67.486 98.1245 67.798C98.0765 68.074 98.0045 68.368 97.9085 68.68H90.9425C90.9305 68.752 90.9245 68.866 90.9245 69.022C90.9245 69.55 91.0685 69.952 91.3565 70.228C91.6445 70.504 92.0285 70.642 92.5085 70.642C93.2765 70.642 93.8645 70.318 94.2725 69.67H97.5485C97.1165 70.69 96.4145 71.524 95.4425 72.172C94.4705 72.82 93.3785 73.144 92.1665 73.144C90.8705 73.144 89.8325 72.784 89.0525 72.064C88.2845 71.344 87.9005 70.366 87.9005 69.13C87.9005 68.758 87.9365 68.374 88.0085 67.978C88.1885 66.934 88.5605 66.022 89.1245 65.242C89.6885 64.462 90.3905 63.862 91.2305 63.442C92.0705 63.022 92.9885 62.812 93.9845 62.812ZM95.1005 67.114C95.1245 66.946 95.1365 66.832 95.1365 66.772C95.1365 66.292 94.9865 65.926 94.6865 65.674C94.3865 65.41 93.9905 65.278 93.4985 65.278C92.9705 65.278 92.5025 65.44 92.0945 65.764C91.6985 66.076 91.4105 66.526 91.2305 67.114H95.1005ZM104.248 59.68L101.89 73H98.8123L101.17 59.68H104.248ZM110.385 62.812C111.681 62.812 112.707 63.166 113.463 63.874C114.231 64.57 114.615 65.524 114.615 66.736C114.615 67.132 114.585 67.486 114.525 67.798C114.477 68.074 114.405 68.368 114.309 68.68H107.343C107.331 68.752 107.325 68.866 107.325 69.022C107.325 69.55 107.469 69.952 107.757 70.228C108.045 70.504 108.429 70.642 108.909 70.642C109.677 70.642 110.265 70.318 110.673 69.67H113.949C113.517 70.69 112.815 71.524 111.843 72.172C110.871 72.82 109.779 73.144 108.567 73.144C107.271 73.144 106.233 72.784 105.453 72.064C104.685 71.344 104.301 70.366 104.301 69.13C104.301 68.758 104.337 68.374 104.409 67.978C104.589 66.934 104.961 66.022 105.525 65.242C106.089 64.462 106.791 63.862 107.631 63.442C108.471 63.022 109.389 62.812 110.385 62.812ZM111.501 67.114C111.525 66.946 111.537 66.832 111.537 66.772C111.537 66.292 111.387 65.926 111.087 65.674C110.787 65.41 110.391 65.278 109.899 65.278C109.371 65.278 108.903 65.44 108.495 65.764C108.099 66.076 107.811 66.526 107.631 67.114H111.501ZM120.235 70.12L123.691 62.956H126.985L121.639 73H117.823L116.041 62.956H119.317L120.235 70.12ZM126.768 67.96C126.948 66.928 127.302 66.022 127.83 65.242C128.358 64.462 128.994 63.862 129.738 63.442C130.482 63.022 131.268 62.812 132.096 62.812C132.804 62.812 133.398 62.956 133.878 63.244C134.358 63.532 134.706 63.91 134.922 64.378L135.174 62.956H138.252L136.47 73H133.392L133.662 71.578C133.278 72.046 132.792 72.424 132.204 72.712C131.616 73 130.968 73.144 130.26 73.144C129.552 73.144 128.922 72.982 128.37 72.658C127.83 72.334 127.41 71.878 127.11 71.29C126.81 70.69 126.66 69.988 126.66 69.184C126.66 68.8 126.696 68.392 126.768 67.96ZM134.292 67.978C134.328 67.762 134.346 67.564 134.346 67.384C134.346 66.796 134.172 66.334 133.824 65.998C133.488 65.662 133.056 65.494 132.528 65.494C131.916 65.494 131.358 65.716 130.854 66.16C130.35 66.592 130.032 67.192 129.9 67.96C129.864 68.176 129.846 68.374 129.846 68.554C129.846 69.142 130.014 69.61 130.35 69.958C130.698 70.294 131.13 70.462 131.646 70.462C132.258 70.462 132.816 70.24 133.32 69.796C133.824 69.352 134.148 68.746 134.292 67.978ZM146.599 62.848C147.607 62.848 148.399 63.13 148.975 63.694C149.551 64.258 149.839 65.044 149.839 66.052C149.839 66.388 149.803 66.748 149.731 67.132L148.687 73H145.627L146.599 67.546C146.635 67.342 146.653 67.162 146.653 67.006C146.653 66.502 146.509 66.112 146.221 65.836C145.945 65.56 145.555 65.422 145.051 65.422C144.451 65.422 143.947 65.608 143.539 65.98C143.131 66.352 142.867 66.874 142.747 67.546V67.456L141.775 73H138.697L140.461 62.956H143.539L143.305 64.306C143.701 63.862 144.181 63.508 144.745 63.244C145.321 62.98 145.939 62.848 146.599 62.848ZM155.002 69.544C154.99 69.604 154.984 69.682 154.984 69.778C154.984 69.994 155.044 70.15 155.164 70.246C155.296 70.342 155.506 70.39 155.794 70.39H156.892L156.424 73H154.858C152.842 73 151.834 72.154 151.834 70.462C151.834 70.21 151.864 69.892 151.924 69.508L152.644 65.512H151.42L151.87 62.956H153.094L153.526 60.508H156.604L156.172 62.956H158.188L157.738 65.512H155.722L155.002 69.544Z" fill="#A15D2A"/>
</svg>
